<svg xmlns="http://www.w3.org/2000/svg" xmlns:xlink="http://www.w3.org/1999/xlink" viewBox="0 0 174.592 151.821">
  <defs>
    <style>
      .cls-1, .cls-3 {
        fill: #2e2079;
      }

      .cls-1, .cls-11, .cls-5, .cls-6 {
        opacity: 0.1;
      }

      .cls-2 {
        fill: #d48a9b;
      }

      .cls-4 {
        fill: #dda2a6;
        opacity: 0.2;
      }

      .cls-7 {
        fill: #e1dee5;
      }

      .cls-8 {
        fill: #a36468;
      }

      .cls-9 {
        fill: #d9d6df;
      }

      .cls-10 {
        fill: #b8797d;
      }

      .cls-11, .cls-19 {
        fill: #fff;
      }

      .cls-12 {
        fill: url(#linear-gradient);
      }

      .cls-13 {
        fill: #efb7b9;
      }

      .cls-14 {
        fill: #67647e;
      }

      .cls-15 {
        fill: #444053;
      }

      .cls-16 {
        fill: #f3f5f9;
      }

      .cls-17 {
        fill: #d1d9ec;
      }

      .cls-18 {
        fill: #dfe6f5;
      }

      .cls-20 {
        fill: none;
      }

      .cls-21 {
        fill: #948b78;
      }

      .cls-22 {
        fill: #746d83;
      }

      .cls-23 {
        fill: #4c4c56;
      }

      .cls-24 {
        fill: #d4dfec;
      }
    </style>
    <linearGradient id="linear-gradient" x1="-2.055" y1="1" x2="-2.055" gradientUnits="objectBoundingBox">
      <stop offset="0" stop-color="gray" stop-opacity="0.251"/>
      <stop offset="0.54" stop-color="gray" stop-opacity="0.122"/>
      <stop offset="1" stop-color="gray" stop-opacity="0.102"/>
    </linearGradient>
  </defs>
  <g id="undraw_on_the_office_fbfs_1_" data-name="undraw_on_the_office_fbfs (1)" transform="translate(-0.004 0.024)">
    <path id="Path_32" data-name="Path 32" class="cls-1" d="M1020.529,308.36H1004.42v20.43h14.932c.039.211.075.422.119.631H1004.42v16.473l.075-.026q.638-.235,1.267-.5l.27-.116q.645-.277,1.267-.592c.149-.072.3-.147.442-.224a26.259,26.259,0,0,0,6.337-4.583c.054-.049.105-.1.154-.15.258-.26.51-.522.755-.792l.27-.3c.289-.328.568-.667.839-1.01l.119-.15a21.515,21.515,0,0,0,2.73-4.583c.023-.049.042-.1.063-.15.219-.517.417-1.041.589-1.575.074-.225.144-.451.2-.676.021-.068.04-.134.058-.2a37.979,37.979,0,0,0,1-10.055v-1.182c0-1.366-.019-2.75-.044-4.115,0-.356-.016-.709-.025-1.067q-.031-1.362-.094-2.72c-.011-.253-.021-.5-.037-.753,0-.145-.014-.29-.023-.434C1020.6,309.4,1020.568,308.882,1020.529,308.36Z" transform="translate(-846.26 -258.436)"/>
    <path id="Path_33" data-name="Path 33" class="cls-1" d="M1004.4,138h8.836a62.74,62.74,0,0,0-4.7-6.02c-1.314-1.5-2.693-2.962-4.137-4.37Z" transform="translate(-846.235 -110.82)"/>
    <path id="Path_34" data-name="Path 34" class="cls-1" d="M1004.42,187.705v21.483h16.058c0-.062-.011-.126-.016-.183-.014-.169-.028-.337-.044-.508s-.037-.4-.058-.6-.042-.431-.067-.643-.046-.431-.072-.645-.051-.429-.079-.642-.054-.429-.086-.642c-.025-.183-.047-.352-.074-.53-.037-.249-.075-.5-.116-.748a1.114,1.114,0,0,0-.019-.11,47.888,47.888,0,0,0-1.181-5.395,38.2,38.2,0,0,0-1.992-5.476,40.235,40.235,0,0,0-3-5.371Z" transform="translate(-846.26 -159.895)"/>
    <path id="Path_35" data-name="Path 35" class="cls-1" d="M226.619,85.834v20.43h34.408V85.834Zm0,21.061V120.73c4.005-1.34,8.585-.8,12.738.3,3.215.854,6.348,2.016,9.558,2.852a33.669,33.669,0,0,0,4.358.862l.361.04c.175.018.35.037.526.051l.526.038h.289a.592.592,0,0,0,.081,0l.284.011h.009c.135,0,.272,0,.408.011h1.125a2.84,2.84,0,0,0,.307-.011c.165,0,.329-.015.5-.027l.307-.02.378-.031c.268-.022.526-.051.8-.084.105-.013.212-.026.317-.042l.156-.02c.265-.037.526-.081.79-.126.194-.031.389-.07.585-.106V106.9Zm25.592-43.812v.631H226.619V85.2h34.408V63.721H259.3V63.09h1.726V49.206a56.19,56.19,0,0,0-23.23-12.1,47.313,47.313,0,0,0-11.179-1.219v27.2Zm-78.671-.121.121.121H222.77V36.077A47.772,47.772,0,0,0,198.627,45c-3.3,2.444-6.269,5.34-9.975,7.215a15.076,15.076,0,0,1-6.238,1.686Zm-.338-11.08V58l4.745-4.845a20.552,20.552,0,0,0-4.752-1.261Zm-.158,76.911h.158v13.4q2.686-.209,5.351-.576a92.359,92.359,0,0,0,23.172-6.28h0q1.2-.5,2.379-1.038.787-.357,1.565-.733,1.167-.561,2.316-1.153a80.715,80.715,0,0,0,9.789-5.95c.194-.137.391-.277.583-.418q.582-.422,1.155-.851c.191-.145.382-.29.571-.436l.389-.312c.392-.306.783-.614,1.179-.917h0c.366-.275.736-.55,1.111-.807V106.886H183.313l.084-.282c-.032.1-.06.183-.086.282H173.195v21.9Zm.158-65.077V85.2H222.77V63.721Zm0,22.113v20.434H222.77V85.834Zm-9.91-33.319,6.055,6.183V51.855Q166.3,52.053,163.292,52.511ZM121.127,85.834v20.43h48.221V85.834Zm11.655,50.457a86.283,86.283,0,0,0,22.73,5.642h.033q2.206.244,4.424.378h.054c3.1.183,6.211.225,9.318.1V106.9H121.127l.175,23.523M107.77,106.264h9.511V85.834h-3.762c-.391.719-.769,1.441-1.128,2.174q-.289.585-.562,1.182A41.611,41.611,0,0,0,107.77,106.264Zm0,.631a26.776,26.776,0,0,0,2.931,11.987,29.131,29.131,0,0,0,6.572,8.249V106.9ZM113.864,85.2h3.41V79.887a56.965,56.965,0,0,0-3.4,5.316ZM135.228,63.09H168.21l.119-.121-.175-.183h0l-9.274-9.465a72.674,72.674,0,0,0-8.142,2.282c-.252.086-.5.183-.755.266a72.4,72.4,0,0,0-14.755,7.221Zm-14.1,11.983V85.2h48.226v-20.9l-.676-.576H134.257a66.937,66.937,0,0,0-13.131,11.343Z" transform="translate(-106.715 -35.91)"/>
    <path id="Path_36" data-name="Path 36" class="cls-1" d="M1004.42,246.84v10.647h16.058c0-.062-.011-.126-.016-.183-.014-.169-.028-.337-.044-.508s-.037-.4-.058-.6-.042-.431-.067-.643-.046-.431-.072-.645-.051-.429-.079-.642-.054-.429-.086-.642c-.025-.183-.047-.352-.074-.53-.037-.249-.075-.5-.116-.748a1.116,1.116,0,0,0-.019-.11,47.889,47.889,0,0,0-1.181-5.395Z" transform="translate(-846.26 -208.193)"/>
    <path id="Path_37" data-name="Path 37" class="cls-1" d="M1020.529,308.36H1004.42v20.43h14.932c.039.211.075.422.119.631H1004.42v16.473l.075-.026q.638-.235,1.267-.5l.27-.116q.645-.277,1.267-.592c.149-.072.3-.147.442-.224a26.259,26.259,0,0,0,6.337-4.583c.054-.049.105-.1.154-.15.258-.26.51-.522.755-.792l.27-.3c.289-.328.568-.667.839-1.01l.119-.15a21.515,21.515,0,0,0,2.73-4.583c.023-.049.042-.1.063-.15.219-.517.417-1.041.589-1.575.074-.225.144-.451.2-.676.021-.068.04-.134.058-.2a37.979,37.979,0,0,0,1-10.055v-1.182c0-1.366-.019-2.75-.044-4.115,0-.356-.016-.709-.025-1.067q-.031-1.362-.094-2.72c-.011-.253-.021-.5-.037-.753,0-.145-.014-.29-.023-.434C1020.6,309.4,1020.568,308.882,1020.529,308.36Z" transform="translate(-846.26 -258.436)"/>
    <path id="Path_38" data-name="Path 38" class="cls-1" d="M811.56,140.833v18.407h12.113V140.833h-1.726V134.6h-7.091v6.233Z" transform="translate(-669.36 -109.946)"/>
    <rect id="Rectangle_41" data-name="Rectangle 41" class="cls-1" width="12.113" height="20.429" transform="translate(142.2 49.924)"/>
    <path id="Path_39" data-name="Path 39" class="cls-1" d="M925.451,423.25H913.34v16.988a33.906,33.906,0,0,0,4.356.862l.361.04c.175.02.35.037.526.051l.526.039h.054a1.7,1.7,0,0,1,.235.011h.081a2.5,2.5,0,0,1,.286.011h0c.135,0,.271,0,.408.011H921.3l.308-.011c.163,0,.329-.015.494-.027l.3-.02.38-.031c.266-.024.526-.051.8-.084l.317-.042.156-.02c.265-.039.526-.079.79-.127.2-.031.389-.07.585-.106Z" transform="translate(-771.138 -352.265)"/>
    <rect id="Rectangle_42" data-name="Rectangle 42" class="cls-1" width="9.989" height="20.579" transform="translate(66.479 28.713)"/>
    <path id="Path_40" data-name="Path 40" class="cls-1" d="M379.4,272.45v20.43h49.575v-8.812H402.568v5.2H389.387V272.45Z" transform="translate(-312.92 -222.526)"/>
    <path id="Path_41" data-name="Path 41" class="cls-1" d="M480.27,443.906h.158v13.4q2.686-.213,5.351-.576a92.529,92.529,0,0,0,23.179-6.289q3.2-1.342,6.26-2.922a80.716,80.716,0,0,0,9.789-5.952q1.172-.832,2.308-1.7c.526-.405,1.051-.818,1.577-1.219.366-.275.736-.55,1.111-.808V422H490.548c.028-.094.054-.183.082-.281-.03.094-.06.183-.086.281H480.428v21.9Z" transform="translate(-413.948 -351.015)"/>
    <path id="Path_42" data-name="Path 42" class="cls-1" d="M332.5,150.937h6.507V149.05h-2.916v-5.6c-.252.086-.5.183-.755.266v5.334H332.5Z" transform="translate(-292.07 -123.756)"/>
    <path id="Path_43" data-name="Path 43" class="cls-1" d="M243,209.213h37.883V188.632H279.2v15.215H271.53v-9h-6.341V187.73h-6.507v7.113h-6.339v9H243Z" transform="translate(-218.251 -159.919)"/>
    <path id="Path_44" data-name="Path 44" class="cls-1" d="M194.338,308.36v20.43h37.883V308.36Zm1.323,50.457a86.28,86.28,0,0,0,22.73,5.642h.033q2.206.244,4.424.378h.054c3.1.183,6.211.225,9.318.1V329.421H194.338v7.243H184l.054,16.17" transform="translate(-169.589 -258.436)"/>
    <path id="Path_45" data-name="Path 45" class="cls-1" d="M116.646,423.25H107.81a26.8,26.8,0,0,0,2.931,11.987,29.135,29.135,0,0,0,6.572,8.249V430.493h-.668Z" transform="translate(-106.748 -352.265)"/>
    <path id="Path_46" data-name="Path 46" class="cls-1" d="M107.77,343.744h8.843V326.67h-4.785A41.611,41.611,0,0,0,107.77,343.744Z" transform="translate(-106.715 -273.39)"/>
    <rect id="Rectangle_43" data-name="Rectangle 43" class="cls-1" width="5.351" height="6.453" transform="translate(66.479 34.434)"/>
    <rect id="Rectangle_44" data-name="Rectangle 44" class="cls-1" width="5.351" height="1.485" transform="translate(66.479 47.809)"/>
    <rect id="Rectangle_45" data-name="Rectangle 45" class="cls-1" width="5.351" height="4.335" transform="translate(66.479 49.924)"/>
    <rect id="Rectangle_46" data-name="Rectangle 46" class="cls-1" width="5.351" height="6.453" transform="translate(66.479 61.181)"/>
    <rect id="Rectangle_47" data-name="Rectangle 47" class="cls-1" width="5.351" height="6.453" transform="translate(66.479 74.556)"/>
    <path id="Path_47" data-name="Path 47" class="cls-1" d="M480.428,520.625h0v1.5h5.351V515.67h-5.351Z" transform="translate(-413.948 -427.743)"/>
    <path id="Path_48" data-name="Path 48" class="cls-1" d="M481.17,588.63v4.984q2.686-.213,5.351-.576v-4.4Z" transform="translate(-414.691 -487.328)"/>
    <rect id="Rectangle_48" data-name="Rectangle 48" class="cls-1" width="22.932" height="0.473" transform="translate(93.122 69.88)"/>
    <rect id="Rectangle_49" data-name="Rectangle 49" class="cls-1" width="22.932" height="1.817" transform="translate(93.122 70.985)"/>
    <rect id="Rectangle_50" data-name="Rectangle 50" class="cls-1" width="22.932" height="2.922" transform="translate(93.122 78.756)"/>
    <path id="Path_49" data-name="Path 49" class="cls-1" d="M633.23,514.06v2.922h17.938q1.169-.83,2.308-1.7c.526-.4,1.051-.816,1.577-1.215Z" transform="translate(-540.108 -426.428)"/>
    <path id="Path_50" data-name="Path 50" class="cls-1" d="M633.23,562.47v2.922h1.887q3.194-1.338,6.259-2.922Z" transform="translate(-540.108 -465.964)"/>
    <rect id="Rectangle_51" data-name="Rectangle 51" class="cls-1" width="4.513" height="4.2" transform="translate(53.314 56.105) rotate(180)"/>
    <rect id="Rectangle_52" data-name="Rectangle 52" class="cls-1" width="4.513" height="4.2" transform="translate(151.058 36.535) rotate(180)"/>
    <rect id="Rectangle_53" data-name="Rectangle 53" class="cls-1" width="4.513" height="4.2" transform="translate(151.058 46.291) rotate(180)"/>
    <rect id="Rectangle_54" data-name="Rectangle 54" class="cls-1" width="4.513" height="4.2" transform="translate(151.058 56.045) rotate(180)"/>
    <rect id="Rectangle_55" data-name="Rectangle 55" class="cls-1" width="4.513" height="4.2" transform="translate(151.058 65.801) rotate(180)"/>
    <rect id="Rectangle_56" data-name="Rectangle 56" class="cls-1" width="4.513" height="4.2" transform="translate(151.058 75.559) rotate(180)"/>
    <rect id="Rectangle_57" data-name="Rectangle 57" class="cls-1" width="4.513" height="4.2" transform="translate(151.058 85.313) rotate(180)"/>
    <rect id="Rectangle_58" data-name="Rectangle 58" class="cls-1" width="4.513" height="4.2" transform="translate(36.08 56.105) rotate(180)"/>
    <rect id="Rectangle_59" data-name="Rectangle 59" class="cls-1" width="4.513" height="4.2" transform="translate(53.314 66.463) rotate(180)"/>
    <rect id="Rectangle_60" data-name="Rectangle 60" class="cls-1" width="4.513" height="4.2" transform="translate(36.08 66.463) rotate(180)"/>
    <rect id="Rectangle_61" data-name="Rectangle 61" class="cls-1" width="4.513" height="4.2" transform="translate(53.314 76.822) rotate(180)"/>
    <rect id="Rectangle_62" data-name="Rectangle 62" class="cls-1" width="4.513" height="4.2" transform="translate(36.08 76.822) rotate(180)"/>
    <rect id="Rectangle_63" data-name="Rectangle 63" class="cls-1" width="4.513" height="4.2" transform="translate(53.314 87.181) rotate(180)"/>
    <rect id="Rectangle_64" data-name="Rectangle 64" class="cls-1" width="4.513" height="4.2" transform="translate(36.08 87.181) rotate(180)"/>
    <rect id="Rectangle_65" data-name="Rectangle 65" class="cls-1" width="4.513" height="4.2" transform="translate(53.314 97.542) rotate(180)"/>
    <rect id="Rectangle_66" data-name="Rectangle 66" class="cls-1" width="4.513" height="4.2" transform="translate(36.08 97.542) rotate(180)"/>
    <path id="Path_51" data-name="Path 51" class="cls-1" d="M283.012,568.518V565.81H278.5v2.323Z" transform="translate(-229.7 -462.109)"/>
    <path id="Path_52" data-name="Path 52" class="cls-1" d="M1004.42,276.26v2.4h15.448v-2.4Zm13.91.152h1.26v2.1h-1.267Zm-1.538,0h1.267v2.1h-1.272Zm-1.535,0h1.267v2.1h-1.267Zm-1.538,0h1.267v2.1h-1.267Zm-1.537,0h1.276v2.1h-1.267Zm-1.538,0h1.267v2.1h-1.267Zm-1.538,0h1.267v2.1h-1.267Zm-1.537,0h1.267v2.1h-1.267Zm-1.536,0h1.267v2.1h-1.267Zm-1.537,0h1.267v2.1H1004.5Z" transform="translate(-846.26 -232.22)"/>
    <path id="Path_53" data-name="Path 53" class="cls-1" d="M1004.42,314.42v2.4h15.448v-2.4Zm13.91.152h1.26v2.1h-1.267Zm-1.538,0h1.267v2.1h-1.272Zm-1.535,0h1.267v2.1h-1.267Zm-1.538,0h1.267v2.1h-1.267Zm-1.537,0h1.276v2.1h-1.267Zm-1.538,0h1.267v2.1h-1.267Zm-1.538,0h1.267v2.1h-1.267Zm-1.537,0h1.267v2.1h-1.267Zm-1.536,0h1.267v2.1h-1.267Zm-1.537,0h1.267v2.1H1004.5Z" transform="translate(-846.26 -263.385)"/>
    <path id="Path_54" data-name="Path 54" class="cls-1" d="M1004.42,352.57v2.4h15.448v-2.4Zm13.91.15h1.26v2.1h-1.267Zm-1.538,0h1.267v2.1h-1.272Zm-1.535,0h1.267v2.1h-1.267Zm-1.538,0h1.267v2.1h-1.267Zm-1.537,0h1.276v2.1h-1.267Zm-1.538,0h1.267v2.1h-1.267Zm-1.538,0h1.267v2.1h-1.267Zm-1.537,0h1.267v2.1h-1.267Zm-1.536,0h1.267v2.1h-1.267Zm-1.537,0h1.267v2.1H1004.5Z" transform="translate(-846.26 -294.542)"/>
    <path id="Path_55" data-name="Path 55" class="cls-1" d="M1004.42,390.72v2.4h15.448v-2.4Zm13.91.15h1.26v2.1h-1.267Zm-1.538,0h1.267v2.1h-1.272Zm-1.535,0h1.267v2.1h-1.267Zm-1.538,0h1.267v2.1h-1.267Zm-1.537,0h1.276v2.1h-1.267Zm-1.538,0h1.267v2.1h-1.267Zm-1.538,0h1.267v2.1h-1.267Zm-1.537,0h1.267v2.1h-1.267Zm-1.536,0h1.267v2.1h-1.267Zm-1.537,0h1.267v2.1H1004.5Z" transform="translate(-846.26 -325.698)"/>
    <path id="Path_56" data-name="Path 56" class="cls-1" d="M1004.42,428.87v2.407h14.525c.021-.049.042-.1.061-.15h-.676v-2.1h1.26v.522c.073-.224.144-.447.2-.675Zm12.372.152h1.267v2.1h-1.272Zm-1.535,0h1.267v2.1h-1.267Zm-1.538,0h1.267v2.1h-1.267Zm-1.537,0h1.276v2.1h-1.267Zm-1.538,0h1.267v2.1h-1.267Zm-1.538,0h1.267v2.1h-1.267Zm-1.537,0h1.267v2.1h-1.267Zm-1.536,0h1.267v2.1h-1.267Zm-1.537,0h1.267v2.1H1004.5Z" transform="translate(-846.26 -356.855)"/>
    <path id="Path_57" data-name="Path 57" class="cls-1" d="M1004.42,467v2.4h9.656c.056-.049.105-.1.156-.15h-.513v-2.1h1.267v1.311l.271-.3v-1.008h.839c.04-.051.079-.1.119-.15Zm7.762.15h1.276v2.1h-1.267Zm-1.538,0h1.267v2.1h-1.267Zm-1.538,0h1.267v2.1h-1.267Zm-1.537,0h1.267v2.1h-1.267Zm-1.536,0h1.267v2.1h-1.267Zm-1.537,0h1.267v2.1H1004.5Z" transform="translate(-846.26 -387.995)"/>
    <path id="Path_58" data-name="Path 58" class="cls-1" d="M1004.42,505.18v1.454a.525.525,0,0,0,.075-.028v-1.283h1.267v.781l.27-.115v-.658h1.267v.073c.149-.071.3-.147.442-.222Z" transform="translate(-846.26 -419.176)"/>
    <path id="Path_59" data-name="Path 59" class="cls-1" d="M425.33,206.407h.009ZM434.956,250h0Zm10.275-21.906h0l.084-.282C445.285,227.908,445.257,228,445.231,228.095Zm-19.9-21.688h.009Zm88.8-22.117v.631h7.091v-.631ZM434.956,250h0Zm10.275-21.906h0l.084-.282C445.285,227.908,445.257,228,445.231,228.095Zm-19.9-21.688h.009ZM434.956,250h0Zm10.275-21.906h0l.084-.282C445.285,227.908,445.257,228,445.231,228.095Z" transform="translate(-368.634 -157.11)"/>
    <ellipse id="Ellipse_7" data-name="Ellipse 7" class="cls-1" cx="6.059" cy="0.702" rx="6.059" ry="0.702" transform="translate(152.154 149.704)"/>
    <path id="Path_60" data-name="Path 60" class="cls-2" d="M652.88,481.545l-3.028-.174-.205-9.1-.047-2.167,3.194-.616.021,2.794Z" transform="translate(-535.778 -383.446)"/>
    <path id="Path_61" data-name="Path 61" class="cls-2" d="M578.066,524.258l-15.559,10.121-.336,3.08,1.682.088v-2.2l10.176-5.983L561.75,545.29v2.464h2.018l-.168-2.728,14.213-16.894,1.766.176,14.972,17.774.337,2.993,2.018.088-.336-3.081L584.712,530.6l7.906,5.719.168,2.464,1.6.088-.168-2.992L579.159,523.73Z" transform="translate(-463.32 -427.743)"/>
    <path id="Path_62" data-name="Path 62" class="cls-3" d="M634.768,358.033a29.3,29.3,0,0,0,3.665-6.249,40.732,40.732,0,0,0,2.334-6.187c.175-1.584,4.457-4.751,9.167-4.927,3.072-.115,7.857-2.623,10.818-4.356a21.326,21.326,0,0,1,9.076-2.933c3.464-.273,6.721.438,5.081,4.643l-22.024,27.9s-18.783,3.463-19.941-2.1a4.78,4.78,0,0,0-.268-.818C632.457,362.48,632.4,361.107,634.768,358.033Z" transform="translate(-539.569 -278.828)"/>
    <path id="Path_63" data-name="Path 63" class="cls-4" d="M645.114,365.45a30.169,30.169,0,0,0,3.7-6.306,37.187,37.187,0,0,0,2.143-5.7c.161-1.512,4.265-4.539,8.771-4.708,2.938-.11,7.517-2.5,10.348-4.159a20.431,20.431,0,0,1,8.687-2.794c3.313-.26,6.43.42,4.867,4.436l-17.471,26.764s-21.551,3.2-22.692-2.093a5.465,5.465,0,0,0-.268-.821C643,369.543,642.975,368.258,645.114,365.45Z" transform="translate(-548.261 -285.691)"/>
    <path id="Path_64" data-name="Path 64" class="cls-5" d="M754.585,508.2c-1.013,0-2.08,0-3.168-.011l-.047-2.167,3.194-.614Z" transform="translate(-637.548 -419.364)"/>
    <g id="Group_28" data-name="Group 28" class="cls-6" transform="translate(98.43 99.861)">
      <path id="Path_65" data-name="Path 65" d="M700.706,564.019,692.8,558.3l.906,1.182,7,5.065.168,2.464,1.6.088-.03-.53-1.568-.086Z" transform="translate(-669.838 -555.836)"/>
      <path id="Path_66" data-name="Path 66" d="M573.75,557.563v.528l9.432-5.545.745-.966Z" transform="translate(-571.647 -550.348)"/>
      <path id="Path_67" data-name="Path 67" d="M561.75,651.9v.528h2.018l-.033-.528Z" transform="translate(-561.75 -632.278)"/>
      <path id="Path_68" data-name="Path 68" d="M565.832,595.844l-1.626-.084-.056.524,1.682.088Z" transform="translate(-563.729 -586.429)"/>
      <path id="Path_69" data-name="Path 69" d="M603.6,565.8l-.336-2.993-14.972-17.774-1.766-.176L572.31,561.754l.03.493,14.184-16.859,1.766.176,14.972,17.774.336,2.993,2.018.088-.058-.532Z" transform="translate(-570.46 -544.86)"/>
    </g>
    <path id="Path_70" data-name="Path 70" class="cls-5" d="M759.52,426.06s3.939,3.014,2.215,3.049S759.52,426.06,759.52,426.06Z" transform="translate(-644.27 -354.56)"/>
    <path id="Path_71" data-name="Path 71" class="cls-3" d="M665.2,375.456s6.518-.528,8.957-5.455c0,0,4.962-10.3,9-11.441s11.522-3.7,14.634-7.655a35.172,35.172,0,0,0,4.417-7,9.356,9.356,0,0,1-1.726,6.982c-2.528,3.778-3.448,9.6-5.214,15.765s-2.439,8.616-5.635,8.982c-2.409.266-15.147.132-21.238,0C666.4,375.583,665.2,375.456,665.2,375.456Z" transform="translate(-566.476 -287.469)"/>
    <path id="Path_72" data-name="Path 72" class="cls-4" d="M665.2,375.456s6.518-.528,8.957-5.455c0,0,4.962-10.3,9-11.441s11.522-3.7,14.634-7.655a35.172,35.172,0,0,0,4.417-7,9.356,9.356,0,0,1-1.726,6.982c-2.528,3.778-3.448,9.6-5.214,15.765s-2.439,8.616-5.635,8.982c-2.409.266-15.147.132-21.238,0C666.4,375.583,665.2,375.456,665.2,375.456Z" transform="translate(-566.476 -287.469)"/>
    <path id="Path_73" data-name="Path 73" class="cls-3" d="M674.56,379.916s6.231-.511,8.561-5.283c0,0,4.745-9.969,8.6-11.076s11.014-3.58,13.989-7.413a34.018,34.018,0,0,0,4.221-6.773,9.213,9.213,0,0,1-1.649,6.773c-2.411,3.657-3.3,9.287-4.985,15.252s-2.33,8.35-5.386,8.691c-2.3.257-14.478.126-20.3,0C675.711,380.048,674.56,379.916,674.56,379.916Z" transform="translate(-574.196 -291.928)"/>
    <path id="Path_74" data-name="Path 74" class="cls-5" d="M645.76,491.612s3.406,1.364,5.34.616,6.728-2.948,6.728-2.948S649.755,489.815,645.76,491.612Z" transform="translate(-550.442 -406.191)"/>
    <path id="Path_75" data-name="Path 75" class="cls-7" d="M417.783,696.588s-9.791-.55-12.177-2.016a12.754,12.754,0,0,0-5.782-1.467l-38.985-8.891-16.207-4.033-2.891-.4,9.549-11.432.291-.132,14.077-6.37s6.308.367,7.553,4.667a5.4,5.4,0,0,1,.175.928,5.565,5.565,0,0,1-1,3.765,8.119,8.119,0,0,0-1.3,2.61,1.606,1.606,0,0,0,.175,1.32,10.384,10.384,0,0,0,1.731,1.446c3.432,2.383,12.109,6.31,27.267.3,0,0,6.483-6.691,11.389-3.85S417.783,696.588,417.783,696.588Z" transform="translate(-299.691 -547.126)"/>
    <path id="Path_76" data-name="Path 76" class="cls-5" d="M379.343,673.82a1.606,1.606,0,0,0,.175,1.32,10.385,10.385,0,0,0,1.731,1.446L351.74,678.9l8.088-10.678,14.077-6.37s6.308.367,7.553,4.667a5.408,5.408,0,0,1,.175.928,5.565,5.565,0,0,1-1,3.765A8.249,8.249,0,0,0,379.343,673.82Z" transform="translate(-307.939 -547.126)"/>
    <path id="Path_77" data-name="Path 77" class="cls-8" d="M222.763,461.94l24.179.55v30.282l-22.953,16.28-5.519-5.316,1.139-17.6-1.139-16.407Z" transform="translate(-180.188 -377.28)"/>
    <path id="Path_78" data-name="Path 78" class="cls-9" d="M266.24,429.43l28.23-9.1a4.1,4.1,0,0,1,1.568-.183l67.44,5.149a30.969,30.969,0,0,1,16.06,5.926,28.1,28.1,0,0,1,10.688,15.651,31.216,31.216,0,0,1-.289,16.834l-5.957,20.165s4.468-43.812-40.124-46.012Z" transform="translate(-237.419 -349.719)"/>
    <path id="Path_79" data-name="Path 79" class="cls-10" d="M230.909,486.591V535.23s-7.736-1.138-9.111-2.719c-1.128-1.3-7.666-4.95-10.5-8.713a6.384,6.384,0,0,1-1.237-2.469c-.95-4.524-4.818-15.215-4.818-15.215l1.051-10.449,4.38-6.783,8.5-4.033h6.57Z" transform="translate(-187.107 -402.573)"/>
    <path id="Path_80" data-name="Path 80" class="cls-9" d="M220.92,497.85s-12.573,8.249-9.822,21.523c.224,1.082.419,2.169.547,3.268.5,4.293,3.52,16.63,21.541,22.32v1.283l-7.645-2.231-5.19-2.994-3.962-3.718-4.843-6.181L209.3,526.08l-.823-6.64-.475-7.58,1.158-6.5,2.732-4.231,3.329-2.708Z" transform="translate(-189.384 -413.19)"/>
    <path id="Path_81" data-name="Path 81" class="cls-5" d="M230.9,486.559V494.3c-5.484.623-22.464,4.216-19.449,24.747l-.166,4.715a6.385,6.385,0,0,1-1.237-2.469c-.95-4.524-4.818-15.215-4.818-15.215l1.051-10.449,4.38-6.783,8.5-4.033h6.571Z" transform="translate(-187.099 -402.54)"/>
    <path id="Path_82" data-name="Path 82" class="cls-11" d="M507.7,692a8.119,8.119,0,0,0-1.3,2.61,1.759,1.759,0,0,1,.175-2.8,5.985,5.985,0,0,0,1.947-4.5,5.4,5.4,0,0,1,.175.928A5.565,5.565,0,0,1,507.7,692Z" transform="translate(-434.991 -567.919)"/>
    <path id="Path_83" data-name="Path 83" class="cls-10" d="M755.783,572.021l-3.329,11.824-7.534,7.7-9.462,2.016-14.718-2.75V536.091a26.138,26.138,0,0,1,2.8-1.742c.263,0,7.359,1.192,7.359,1.192L746.969,547.6l.666.5,7.184,11.182Z" transform="translate(-612.285 -442.999)"/>
    <path id="Path_84" data-name="Path 84" class="cls-8" d="M618.97,495.44v57.011l1.419.266V495.44Z" transform="translate(-510.515 -404.639)"/>
    <path id="Path_85" data-name="Path 85" class="cls-5" d="M747.285,551.439a44.219,44.219,0,0,0-26.545-10.531v-4.766a26.138,26.138,0,0,1,2.8-1.742c.263,0,7.359,1.192,7.359,1.192l16.067,12.057Z" transform="translate(-612.285 -443.04)"/>
    <path id="Path_86" data-name="Path 86" class="cls-7" d="M283.626,475.918l-65.85-7.516-7.4-.411a14.894,14.894,0,0,0-12.3,5.38c-3.855,4.638-6.768,12.819-2.513,26.867,0,0,4.438,18.209,25.932,22.12l62.453,14.806c1.384.328,2.751.733,4.1,1.193,5.67,1.949,24.88,7,33.93-10.165a30.09,30.09,0,0,0,2.835-19.351C322.632,496.763,314.409,476.263,283.626,475.918Zm32.262,51.491c-8.445,14.394-25.848,10.11-31.079,8.42-1.281-.414-2.577-.775-3.89-1.069l-57.691-12.913c-19.876-3.415-23.981-19.314-23.981-19.314-3.355-10.449-1.889-17.191.823-21.459a14.39,14.39,0,0,1,12.908-6.695l6.819.367,58.9,8.233a34.694,34.694,0,0,0,3.594.319c26.193.929,34.342,16,36.413,26.383A25.283,25.283,0,0,1,315.888,527.409Z" transform="translate(-177.391 -388.783)"/>
    <path id="Path_87" data-name="Path 87" class="cls-12" d="M102.515,242.362c2.157,1.51,5.432.792,5.432.792s4.939-2.447,6.4-2.447,5.009-1.512,5.009-1.512l-.121-1.019-.361-3.071c2.248,1.833,4.747,1.2,5.977,1.067,1.321-.143,8.38-4.533,9.06-4.823a1.836,1.836,0,0,0,.618-.653h0a16.891,16.891,0,0,0,1.195-2.284h0c.442-.407.764-.733.741-.8a5.718,5.718,0,0,1,.433-1.21,5.525,5.525,0,0,0,2.141-.807,1.994,1.994,0,0,0,.7-1.584s6.888-7.268,5.982-10.291,2.227-3.1,2.227-3.1,4.8-2.159,5.467-3.454c.412-.8,4.012-2.548,6.721-3.776l.333-.15c1.051,2.411,6.392.55,7.443-.464,1.113-1.08,4.38-1.584,4.38-1.584s.14-14.115,1.183-15.908c.5-.852.615-3.639.6-6.33v-.286c1.461-.3,4.938-.99,6.551-1.157a6.158,6.158,0,0,0,2.909-1.423l.1.126a1.918,1.918,0,0,0,.888.152,1.308,1.308,0,0,0,.78-.152c.627-.367,2.923-1.08,3.757-1.439s-.138-2.951-.764-3.455-1.051-1.151-.7-1.439-.834-1.008-1.53-1.153a22.213,22.213,0,0,1-2.782-1.151s-.766-1.65-2.017-1.65a6.344,6.344,0,0,1-2.923-1.3c-.068-.576-1.391-.647-1.391-.647s-5.008-4.033-5.843-3.527-3.129-.792-3.129-.792-2.816.33-3.478-.213h0a.84.84,0,0,0-.175-.488,4.99,4.99,0,0,0-1.577-1.71,6.782,6.782,0,0,0,.081-1.041,4.259,4.259,0,0,0-.016-.449v-.075l.1-1.014a2.17,2.17,0,0,1,.242-.953c.117-.183.291-.339.422-.521a1.3,1.3,0,0,0,.084-.134l.021-.038q.029-.053.053-.108l.016-.037a1.818,1.818,0,0,0,.089-.308v-.024c.009-.048.016-.1.021-.145a.087.087,0,0,1,0-.02,3.2,3.2,0,0,0-.158-1.236,8.625,8.625,0,0,1-.569-2.046,6.622,6.622,0,0,0-.035-1.056,2.641,2.641,0,0,0-1.686-1.613,9.323,9.323,0,0,1-2.372-1.615c-.7-.568-1.861-.282-2.744-.224a23.174,23.174,0,0,0-5.91,1.428,5.857,5.857,0,0,0-2.064,1.072,2.407,2.407,0,0,0-.755,1.335h0a1.823,1.823,0,0,0-.023.367v.031a.416.416,0,0,0,.016.139.365.365,0,0,0,0,.046,1.124,1.124,0,0,0,.039.165h0c.081.266.23.506.315.77a1.561,1.561,0,0,1,.047.183v.018a1.735,1.735,0,0,1,.028.183h0a7.788,7.788,0,0,1-.256,2.005c-.014.093-.025.183-.032.286h0a3.57,3.57,0,0,0,.1,1.149.037.037,0,0,0,0,.013c.01.046.026.092.04.136a.569.569,0,0,0,.018.059c.012.038.028.077.042.114l.03.077c.014.033.03.066.046.1s.026.055.04.081.03.06.047.088.033.057.051.084.033.053.053.079.04.057.061.084l.054.07.074.081.058.06.086.077c.021.016.039.035.06.049s.072.053.109.077l.051.037c.056.035.116.066.175.1.4.183.9.258,1.144.627a.793.793,0,0,1,.117.286v.137a6.246,6.246,0,0,0,.035.631,2.437,2.437,0,0,0,.019.341,1.013,1.013,0,0,0,.067.247,6.6,6.6,0,0,0,2.1,3.707c.021.112.046.242.072.389a6.854,6.854,0,0,1-2.024,1.1c-1.67.511-4.03,2.871-4.03,2.871s-1.174,8.852-1.456,9.932a50.23,50.23,0,0,0-.491,5.256,12.3,12.3,0,0,1-.7,2.59,7.851,7.851,0,0,0,.582,4.814,4.051,4.051,0,0,1-.512.873c-1.67,2.016-6.679,1.943-8.349,1.943a2.1,2.1,0,0,0-2.076,1.129c-3.057.917-12.957,3.864-14.131,4.4-1.391.636-2.157,6.922-2.157,6.922s-2.907,10.434-2.768,11.8-.974,5.177-.974,5.177,0,4.306-.471,4.6a.044.044,0,0,1-.014.009c-.487.216-.419,2.3-.419,2.3s.359.108.918.257a17.7,17.7,0,0,1-1.127,3.578c-.217-.288-.429-.407-.555-.073-.35.917-5.565,7.395-6.888,7.395a3.95,3.95,0,0,0-2.355,1.267C101.7,240.543,101.383,241.571,102.515,242.362Zm23.925-37.5a55.528,55.528,0,0,0,12.244-.438,15.206,15.206,0,0,1-.9,2.526,26.54,26.54,0,0,0-1.6,5.683c0,.86-1.878,8.277-2.434,8.636a2.17,2.17,0,0,0-.606.917,8.88,8.88,0,0,0-.368,1.1q.012.28.047.533c-.415.4-.855.816-1.246,1.186h0a27.364,27.364,0,0,0-3.329,2.24c-.841.792-4.731,1.763-4.731,1.763a23.83,23.83,0,0,0-2.8,1.494,6.48,6.48,0,0,0-2.73,2.684c.137-1.61.359-3.547.508-4.779l.221-.009c1.95-.126,1.659-2.073,1.556-2.555-.014-.07-.025-.108-.025-.108,1.391-1.584,4.521-13.382,4.1-14.684a2.393,2.393,0,0,1,.513-2.447,3.054,3.054,0,0,0,.044-2.231C124.553,205.58,126.44,204.861,126.44,204.861Zm47.816-31.754-.37.1v-.082S174.021,173.12,174.256,173.107Zm-20.213-10.861c-.056.073-.112.143-.175.211l-.072.077v-.4C153.88,162.169,153.961,162.211,154.043,162.246Zm-6.968,13.965.025.405s-.037.247-.107.671Zm31.968-4.022-1.214.218c.175-.068.342-.141.506-.224a1.125,1.125,0,0,1,.387-.11,2.136,2.136,0,0,1,.452.1A.8.8,0,0,0,179.043,172.189Z" transform="translate(-101.77 -124.593)"/>
    <path id="Path_88" data-name="Path 88" class="cls-13" d="M272.33,569.412a27.654,27.654,0,0,0-1.33,3.241,27.154,27.154,0,0,1-3,2.783l-3.345-2.5.35-1.716s3.755-3.54,4.03-3.949S272.33,569.412,272.33,569.412Z" transform="translate(-236.108 -469.85)"/>
    <path id="Path_89" data-name="Path 89" class="cls-14" d="M197.435,592.32c2.322,2.357,5.051,1.65,6.35,1.5s8.225-4.5,8.89-4.786a1.857,1.857,0,0,0,.608-.649h0a16.739,16.739,0,0,0,1.172-2.268c-.046.013-2.316.693-2.889,0,0,0-.957-1.226-1.162-1.226s-.016-2.152-.016-2.152a26.314,26.314,0,0,0-3.261,2.224c-.818.786-4.643,1.749-4.643,1.749a23.125,23.125,0,0,0-2.747,1.483C197.929,589.35,196.107,590.98,197.435,592.32Z" transform="translate(-180.294 -482.518)"/>
    <path id="Path_90" data-name="Path 90" class="cls-5" d="M197.435,616.625c2.322,2.357,5.051,1.65,6.35,1.5s8.225-4.5,8.89-4.786a1.855,1.855,0,0,0,.608-.649c-.808-.5-6.085,3.006-7.562,3.65s-5.214.284-7.336-.643c-1.051-.464.014-1.888,1.349-3.2C197.929,613.655,196.107,615.284,197.435,616.625Z" transform="translate(-180.294 -506.823)"/>
    <path id="Path_91" data-name="Path 91" class="cls-13" d="M169,589.873s-.972,7.642-.725,8.643-6.1-3.428-6.1-3.428,2.222-4.79,1.577-5.89S169,589.873,169,589.873Z" transform="translate(-151.584 -487.499)"/>
    <path id="Path_92" data-name="Path 92" class="cls-15" d="M166.444,432.323a23.6,23.6,0,0,0,6.143,1.071c1.913-.125,1.628-2.057,1.528-2.535-.014-.068-.025-.106-.025-.106,1.365-1.573,4.438-13.287,4.03-14.572a2.345,2.345,0,0,1,.508-2.42,2.978,2.978,0,0,0,.042-2.214c-.342-.785,1.5-1.5,1.5-1.5a53.929,53.929,0,0,0,12.016-.436,15.165,15.165,0,0,1-.888,2.508,26.482,26.482,0,0,0-1.577,5.642c0,.858-1.843,8.214-2.39,8.572a2.129,2.129,0,0,0-.594.917,8.842,8.842,0,0,0-.361,1.1c.2,4.786,5.393,2.933,6.145,2.286a1.969,1.969,0,0,0,.682-1.573s6.76-7.213,5.871-10.214,2.185-3.071,2.185-3.071,4.712-2.143,5.367-3.43c.4-.79,3.937-2.526,6.6-3.747,1.666-.764,2.989-1.324,2.989-1.324l-1.107-4.154-.876-3.276-1.643-.645-5.256-2.068-9.43-1.384-.864.117-9.162,1.241s-13.376,4-14.742,4.631-2.117,6.869-2.117,6.869-2.866,10.357-2.726,11.721-.957,5.133-.957,5.133,0,4.273-.464,4.563a.023.023,0,0,1-.014,0C166.376,430.259,166.444,432.323,166.444,432.323Z" transform="translate(-155.106 -329.806)"/>
    <path id="Path_93" data-name="Path 93" class="cls-5" d="M244.78,448.528a53.927,53.927,0,0,0,12.016-.436c.41-1.351,6.148-5.065,6.148-5.065C258.236,441.813,244.78,448.528,244.78,448.528Z" transform="translate(-219.719 -368.296)"/>
    <path id="Path_94" data-name="Path 94" class="cls-15" d="M280.24,568.573c.205,4.786,5.393,2.933,6.145,2.286a2.064,2.064,0,0,0,.291-.312c-1.813.7-5.029,1.239-6.075-3.067A8.84,8.84,0,0,0,280.24,568.573Z" transform="translate(-248.966 -470.056)"/>
    <path id="Path_95" data-name="Path 95" class="cls-15" d="M166.444,585.035a23.6,23.6,0,0,0,6.143,1.071c1.913-.125,1.628-2.057,1.528-2.535a34.009,34.009,0,0,1-7.249-.83.023.023,0,0,1-.014,0C166.376,582.971,166.444,585.035,166.444,585.035Z" transform="translate(-155.106 -482.518)"/>
    <path id="Path_96" data-name="Path 96" class="cls-5" d="M280.24,568.573c.205,4.786,5.393,2.933,6.145,2.286a2.064,2.064,0,0,0,.291-.312c-1.813.7-5.029,1.239-6.075-3.067A8.84,8.84,0,0,0,280.24,568.573Z" transform="translate(-248.966 -470.056)"/>
    <path id="Path_97" data-name="Path 97" class="cls-5" d="M166.444,585.035a23.6,23.6,0,0,0,6.143,1.071c1.913-.125,1.628-2.057,1.528-2.535a34.009,34.009,0,0,1-7.249-.83.023.023,0,0,1-.014,0C166.376,582.971,166.444,585.035,166.444,585.035Z" transform="translate(-155.106 -482.518)"/>
    <path id="Path_98" data-name="Path 98" class="cls-14" d="M107.322,625.927c2.117,1.5,5.326.785,5.326.785s4.846-2.427,6.281-2.427,4.909-1.5,4.909-1.5l-.117-1.01-.564-4.847s-5.318-.143-5.532-.643c0,0-.955-2.46-1.3-1.551s-5.461,7.333-6.76,7.333a3.857,3.857,0,0,0-2.311,1.258C106.528,624.123,106.215,625.142,107.322,625.927Z" transform="translate(-105.749 -508.481)"/>
    <path id="Path_99" data-name="Path 99" class="cls-5" d="M215.55,446.41s4.438,2.933,3.21,3.571S215.55,446.41,215.55,446.41Z" transform="translate(-195.611 -371.179)"/>
    <path id="Path_100" data-name="Path 100" class="cls-5" d="M205,477.19s3.823,3.8,2.39,3.9S205,477.19,205,477.19Z" transform="translate(-186.909 -396.317)"/>
    <path id="Path_101" data-name="Path 101" class="cls-5" d="M181.65,543s1.941,3.818,1.211,4.48S181.65,543,181.65,543Z" transform="translate(-167.651 -450.063)"/>
    <path id="Path_102" data-name="Path 102" class="cls-5" d="M303.4,552.925c-.683.713,6.483-2.357,4.846-2.5S303.4,552.925,303.4,552.925Z" transform="translate(-268.033 -456.122)"/>
    <path id="Path_103" data-name="Path 103" class="cls-13" d="M385.44,228.606l.23-.035c.848-.136,3.927-.642,6.688-1.269.673-.154,1.325-.313,1.927-.478,2.115-.579,3.534-1.2,2.628-1.718a5.046,5.046,0,0,1-2.162-2.979c-.032-.1-.061-.205-.089-.306a8.274,8.274,0,0,1-.275-1.65s-7.709-2.858-6.213,0a2.8,2.8,0,0,1-.454,3.347,6.036,6.036,0,0,1-1.663,1.3Z" transform="translate(-335.734 -185.376)"/>
    <path id="Path_104" data-name="Path 104" class="cls-5" d="M353.28,259.76s-2.76,2.071-5.579.357-6.506,15.144-6.506,15.144l-3.823,9.857s-2.476,2.143.606,3.072,9.919-.929,11.655,1.785a7.479,7.479,0,0,0,5.36,3.142c.336,0,1.636-10.216,1.636-10.216l.338-14.786Z" transform="translate(-295.313 -218.745)"/>
    <path id="Path_105" data-name="Path 105" class="cls-16" d="M338.745,285.07c3.082.928,9.921-.929,11.657,1.786a6.736,6.736,0,0,0,2.942,2.48,7.441,7.441,0,0,0,2.423.671c.044,0,.109-.183.184-.511.48-2.068,1.453-9.7,1.453-9.7L357.74,265l-3.243-7.36-.443-1a5.747,5.747,0,0,1-1.4.717,4.742,4.742,0,0,1-4.174-.367c-.827-.5-1.729.594-2.59,2.394-2.075,4.334-3.916,12.749-3.916,12.749L338.146,282a3.324,3.324,0,0,0-.259.26C337.344,282.858,336.326,284.341,338.745,285.07Z" transform="translate(-295.95 -216.197)"/>
    <path id="Path_106" data-name="Path 106" class="cls-5" d="M425.048,267.755a19.6,19.6,0,0,0-.091,3.762,46,46,0,0,0,.641,5.316,2.167,2.167,0,0,0,.084.324c1.666-.764,2.989-1.324,2.989-1.324l-1.107-4.154c.48-2.068,1.453-9.7,1.453-9.7l.336-14.786-3.243-7.356c2.115-.579,3.534-1.2,2.628-1.718a5.24,5.24,0,0,1-2.251-3.285,11.734,11.734,0,0,1-1.936,2.185l-.042.037-.245,2.493-.075.766-.158,1.589s.752,18.786,1.3,19.858.273,3.142-.2,5.571C425.094,267.467,425.076,267.608,425.048,267.755Z" transform="translate(-367.562 -198.385)"/>
    <path id="Path_107" data-name="Path 107" class="cls-14" d="M426.672,246.986c-.477,2.429-.068,6.429.478,9.5s6.35,1.072,7.443,0,4.3-1.571,4.3-1.571.137-14,1.162-15.785c.485-.847.6-3.611.59-6.282-.009-2.4-.123-4.72-.165-5.5-.01-.183-.016-.284-.016-.284s4.436-7.857,4.368-8.432-1.365-.642-1.365-.642-4.906-4-5.735-3.5-3.073-.785-3.073-.785-2.854.339-3.445-.238a.322.322,0,0,1-.105-.262c.067-.917-2.909-2.867-3-2.933,2.509,2.361-1.547,6-2.008,6.4l-.042.037-.478,4.849s.752,18.786,1.3,19.858S427.15,244.557,426.672,246.986Z" transform="translate(-368.841 -178.327)"/>
    <ellipse id="Ellipse_8" data-name="Ellipse 8" class="cls-15" cx="0.342" cy="0.357" rx="0.342" ry="0.357" transform="translate(57.754 47.895)"/>
    <path id="Path_108" data-name="Path 108" class="cls-5" d="M429.33,218.182l2.075,2.1,3.04-5.316a.323.323,0,0,1-.105-.262c.067-.917-2.91-2.867-3-2.933C433.847,214.144,429.8,217.783,429.33,218.182Z" transform="translate(-371.934 -179.552)"/>
    <ellipse id="Ellipse_9" data-name="Ellipse 9" class="cls-5" cx="0.342" cy="0.357" rx="0.342" ry="0.357" transform="translate(58.437 59.323)"/>
    <ellipse id="Ellipse_10" data-name="Ellipse 10" class="cls-15" cx="0.342" cy="0.357" rx="0.342" ry="0.357" transform="translate(58.437 59.18)"/>
    <path id="Path_109" data-name="Path 109" class="cls-14" d="M428.55,216.622l2.075,2.1,3.04-5.316a.323.323,0,0,1-.105-.262c.067-.917-2.909-2.867-3-2.933C433.067,212.584,429.011,216.221,428.55,216.622Z" transform="translate(-371.29 -178.278)"/>
    <path id="Path_162" data-name="Path 162" class="cls-17" d="M.493,0,4.255,0A.505.505,0,0,1,4.75.518L4.761,10a.5.5,0,0,1-.493.512l-3.762,0a.505.505,0,0,1-.495-.513L0,.512A.5.5,0,0,1,.493,0Z" transform="translate(59.858 58.452) rotate(-178.69)"/>
    <path id="Path_163" data-name="Path 163" class="cls-18" d="M.493,0,4.255,0A.505.505,0,0,1,4.75.518L4.761,10a.5.5,0,0,1-.493.512l-3.762,0a.505.505,0,0,1-.495-.513L0,.512A.5.5,0,0,1,.493,0Z" transform="translate(59.883 58.685) rotate(-178.69)"/>
    <ellipse id="Ellipse_11" data-name="Ellipse 11" class="cls-19" cx="0.746" cy="0.781" rx="0.746" ry="0.781" transform="translate(57 50.423)"/>
    <path id="Path_110" data-name="Path 110" class="cls-5" d="M284.52,267.2c1.707.786,12.9-1.283,14.543-1.785s4.03-4.357,2.868-7.149a6.758,6.758,0,0,1,.408-5.5s2.453-5.5,3-6.572,1.686-4.191,1.843-4.713a.442.442,0,0,0-.1-.328,12.2,12.2,0,0,0-2.162-1.952c-.482.183-.541-1.263-.526-2.324.01-.594.044-1.067.044-1.067s-.226.24-.6.568c-.135.119-.289.251-.461.387a7,7,0,0,1-2.141,1.23c-1.638.508-3.96,2.849-3.96,2.849l.683,10.97s-1.577,10.317-3.21,12.317-6.555,1.928-8.193,1.928A2.042,2.042,0,0,0,284.52,267.2Z" transform="translate(-252.496 -199.185)"/>
    <path id="Path_111" data-name="Path 111" class="cls-14" d="M283.74,264.887c1.707.785,12.9-1.283,14.543-1.787s4.03-4.357,2.868-7.149a6.757,6.757,0,0,1,.408-5.5s2.453-5.5,3-6.572,1.686-4.191,1.843-4.713a.444.444,0,0,0-.1-.328,12.328,12.328,0,0,0-2.157-1.947c-.482.183-.541-1.261-.526-2.323.01-.6.044-1.069.044-1.069s-.226.24-.6.57c-.135.117-.289.249-.461.385a7,7,0,0,1-2.152,1.23c-1.638.508-3.96,2.849-3.96,2.849l.683,10.97s-1.577,10.317-3.21,12.317-6.553,1.928-8.193,1.928A2.028,2.028,0,0,0,283.74,264.887Z" transform="translate(-251.853 -197.299)"/>
    <path id="Path_112" data-name="Path 112" class="cls-5" d="M389.73,235s.065.376.175.955c.368,1.961,1.244,6.244,1.877,6.079a5.722,5.722,0,0,0,1.815-1.685,12.025,12.025,0,0,0-2.157-1.958c-.482.183-.541-1.261-.526-2.323l-.552-.5Z" transform="translate(-339.272 -198.524)"/>
    <path id="Path_113" data-name="Path 113" class="cls-14" d="M390.51,233.47s.065.376.175.955c.368,1.961,1.244,6.244,1.876,6.079a5.721,5.721,0,0,0,1.815-1.685,12.3,12.3,0,0,0-2.16-1.952c-.482.183-.541-1.261-.526-2.323l-.552-.5Z" transform="translate(-339.915 -197.274)"/>
    <path id="Path_114" data-name="Path 114" class="cls-13" d="M351.45,328.974s3.415-.713,4.37-2.284,7.459-2.933,6.658-1.283-6.658,7.019-6.658,7.019l-2.542,3.807-3.4-.9-1.431-2.913Z" transform="translate(-305.225 -271.745)"/>
    <path id="Path_115" data-name="Path 115" class="cls-5" d="M393.575,370.45s-3.306,1.283-3.8,3S393.575,370.45,393.575,370.45Z" transform="translate(-339.273 -309.144)"/>
    <path id="Path_116" data-name="Path 116" class="cls-5" d="M405.152,381.34s.3,1.784-3.842,1.65Z" transform="translate(-348.823 -318.038)"/>
    <path id="Path_117" data-name="Path 117" class="cls-5" d="M502.541,256l1.5-.143a6.19,6.19,0,0,0,2.867,1.283c1.228,0,1.98,1.65,1.98,1.65a21.5,21.5,0,0,0,2.732,1.144c.683.143,1.843.856,1.5,1.142s.068.929.683,1.428,1.577,3.072.75,3.43-3.072,1.071-3.68,1.428a1.626,1.626,0,0,1-1.365,0s-3.616-4.929-5.461-4a11.315,11.315,0,0,1-4.372.924l-1.98-4.356Z" transform="translate(-428.324 -215.56)"/>
    <path id="Path_118" data-name="Path 118" class="cls-14" d="M341.757,283.648a1.833,1.833,0,0,0,1.274.926,9.231,9.231,0,0,0,3.976-.385s-6.877-2.286-.256-7.844h-1.77l-.6-.235.27-1.479.389-13.343-1.433-.357s-1.155,8.786-1.43,9.857A50.891,50.891,0,0,0,341.7,276a12.416,12.416,0,0,1-.683,2.566A7.775,7.775,0,0,0,341.757,283.648Z" transform="translate(-298.961 -219.701)"/>
    <path id="Path_119" data-name="Path 119" class="cls-5" d="M347.59,351.262a1.83,1.83,0,0,0,1.274.926,9.232,9.232,0,0,0,3.976-.385s-6.877-2.286-.256-7.848h-1.768l-.591-.235C349.239,345.526,347.714,348.732,347.59,351.262Z" transform="translate(-304.516 -287.314)"/>
    <path id="Path_120" data-name="Path 120" class="cls-20" d="M346,351.278a1.833,1.833,0,0,0,1.274.926,9.231,9.231,0,0,0,3.976-.385s-6.877-2.286-.256-7.844h-1.77l-.6-.235C347.661,345.542,346.13,348.748,346,351.278Z" transform="translate(-303.204 -287.33)"/>
    <path id="Path_121" data-name="Path 121" class="cls-14" d="M346,351.278a1.833,1.833,0,0,0,1.274.926,9.231,9.231,0,0,0,3.976-.385s-6.877-2.286-.256-7.844h-1.77l-.6-.235C347.661,345.542,346.13,348.748,346,351.278Z" transform="translate(-303.204 -287.33)"/>
    <path id="Path_122" data-name="Path 122" class="cls-5" d="M398.44,223.524a6.017,6.017,0,0,0,7.031-1.4c-.032-.1-.061-.205-.089-.306a8.276,8.276,0,0,1-.275-1.65s-7.709-2.858-6.213,0A2.806,2.806,0,0,1,398.44,223.524Z" transform="translate(-346.456 -185.376)"/>
    <path id="Path_123" data-name="Path 123" class="cls-13" d="M377.65,181.386v.064a6.138,6.138,0,0,0,.035.625c.021.205.049.392.084.585a6.316,6.316,0,0,0,5.678,5.211,6.221,6.221,0,0,0,6.292-4.372c.042-.127.079-.253.112-.381a6.709,6.709,0,0,0,.224-1.732,4.186,4.186,0,0,0-.016-.445,6.209,6.209,0,1,0-12.41.445Z" transform="translate(-329.309 -149.443)"/>
    <path id="Path_124" data-name="Path 124" class="cls-5" d="M377.65,181.459a2.927,2.927,0,0,1,.035.625,2.431,2.431,0,0,0,.018.339.994.994,0,0,0,.067.246,1.141,1.141,0,0,0,1.612.618,1.8,1.8,0,0,0,.484-.664c.575-1.116,1.372-2.4,2.628-2.422a5.64,5.64,0,0,1,1.558.367,1.593,1.593,0,0,0,1.517-.214c.3-.284.438-.768.836-.867s.766.282.948.656.328.814.7,1.008c.165.084.35.11.526.2.743.425.4,1.916,1.172,2.158a.539.539,0,0,0,.074.018c.012-.132.026-.268.039-.4q.105-1.089.208-2.178a6.209,6.209,0,1,0-12.41.445Z" transform="translate(-329.309 -149.452)"/>
    <path id="Path_125" data-name="Path 125" class="cls-21" d="M376.544,148.7a2.583,2.583,0,0,1,1.654,1.6,6.737,6.737,0,0,1,.035,1.047,8.484,8.484,0,0,0,.559,2.031,2.336,2.336,0,0,1-.131,2.035c-.128.183-.3.328-.414.515a2.186,2.186,0,0,0-.238.957l-.338,3.516c-.866-.17-.48-1.741-1.248-2.178-.159-.092-.35-.117-.517-.2-.37-.183-.513-.632-.7-1.006s-.543-.757-.948-.656-.538.585-.834.867a1.613,1.613,0,0,1-1.519.214,6.205,6.205,0,0,0-1.556-.367c-1.258.022-2.057,1.305-2.628,2.422a1.806,1.806,0,0,1-.485.665,1.158,1.158,0,0,1-1.677-.865c-.06-.42.067-.887-.165-1.243s-.732-.431-1.123-.621a2.685,2.685,0,0,1-1.142-2.876,5.2,5.2,0,0,0,.175-2.357c-.086-.262-.231-.5-.31-.763a2.121,2.121,0,0,1,.7-2.07,5.608,5.608,0,0,1,2.025-1.063,22.426,22.426,0,0,1,5.8-1.419c.867-.059,2-.343,2.693.224A9.537,9.537,0,0,0,376.544,148.7Z" transform="translate(-317.166 -126.458)"/>
    <ellipse id="Ellipse_12" data-name="Ellipse 12" class="cls-5" cx="0.342" cy="0.357" rx="0.342" ry="0.357" transform="translate(57.412 42.25)"/>
    <ellipse id="Ellipse_13" data-name="Ellipse 13" class="cls-15" cx="0.342" cy="0.357" rx="0.342" ry="0.357" transform="translate(57.412 42.108)"/>
    <ellipse id="Ellipse_14" data-name="Ellipse 14" class="cls-5" cx="0.342" cy="0.357" rx="0.342" ry="0.357" transform="translate(59.597 64.681)"/>
    <ellipse id="Ellipse_15" data-name="Ellipse 15" class="cls-15" cx="0.342" cy="0.357" rx="0.342" ry="0.357" transform="translate(59.597 64.538)"/>
    <ellipse id="Ellipse_16" data-name="Ellipse 16" class="cls-5" cx="0.342" cy="0.357" rx="0.342" ry="0.357" transform="translate(58.437 70.609)"/>
    <ellipse id="Ellipse_17" data-name="Ellipse 17" class="cls-15" cx="0.342" cy="0.357" rx="0.342" ry="0.357" transform="translate(58.437 70.466)"/>
    <path id="Path_126" data-name="Path 126" class="cls-5" d="M368.677,299.24s-.752,5.334,0,6.264S368.677,299.24,368.677,299.24Z" transform="translate(-321.633 -250.988)"/>
    <path id="Path_127" data-name="Path 127" class="cls-5" d="M488.38,353.28a8.412,8.412,0,0,1,0,6.33c-1.433,3.1-2.322,4.357-1.843,6.335S488.38,353.28,488.38,353.28Z" transform="translate(-419.009 -295.122)"/>
    <path id="Path_128" data-name="Path 128" class="cls-5" d="M107.322,658.194c2.117,1.5,5.326.785,5.326.785s4.846-2.427,6.281-2.427,4.909-1.5,4.909-1.5l-.117-1.01a28.385,28.385,0,0,0-5,1.3c-.478.429-6.35,2.5-6.35,2.5s-4-.522-5.111-2.242C106.528,656.39,106.215,657.409,107.322,658.194Z" transform="translate(-105.749 -540.748)"/>
    <g id="Group_29" data-name="Group 29" class="cls-6" transform="translate(45.764 24.084)">
      <path id="Path_129" data-name="Path 129" d="M450.28,167.633v.035A.117.117,0,0,0,450.28,167.633Z" transform="translate(-434.977 -167.4)"/>
      <path id="Path_130" data-name="Path 130" d="M365.016,189.5c.391.183.876.257,1.123.62s.105.823.165,1.243a1.158,1.158,0,0,0,1.677.865,1.806,1.806,0,0,0,.485-.665c.573-1.116,1.372-2.4,2.628-2.422a5.774,5.774,0,0,1,1.558.367,1.6,1.6,0,0,0,1.519-.214c.3-.282.436-.768.834-.867s.764.282.948.656.328.814.7,1.008c.165.084.35.11.517.2.767.438.382,2.016,1.248,2.178q.175-1.76.338-3.516a2.177,2.177,0,0,1,.238-.946c.116-.183.286-.337.413-.517a1.618,1.618,0,0,0,.28-.755,1.9,1.9,0,0,1-.28,1.327c-.128.183-.3.328-.413.515a2.185,2.185,0,0,0-.242.955q-.175,1.758-.338,3.516c-.866-.17-.48-1.741-1.247-2.178-.159-.092-.35-.117-.517-.2-.37-.183-.513-.632-.7-1.006s-.543-.757-.948-.656-.538.585-.834.867a1.613,1.613,0,0,1-1.519.214,6.2,6.2,0,0,0-1.558-.367c-1.256.022-2.055,1.305-2.628,2.422a1.807,1.807,0,0,1-.485.665,1.158,1.158,0,0,1-1.677-.865c-.06-.42.067-.887-.165-1.243s-.732-.431-1.123-.621a2.572,2.572,0,0,1-1.172-2.592A2.355,2.355,0,0,0,365.016,189.5Z" transform="translate(-363.674 -183.195)"/>
      <path id="Path_131" data-name="Path 131" d="M363.006,168.332c.079.262.224.5.31.763a2.3,2.3,0,0,1,.077.94,1.908,1.908,0,0,0-.077-.367c-.086-.262-.231-.5-.31-.763a1.682,1.682,0,0,1-.04-.746A1.565,1.565,0,0,0,363.006,168.332Z" transform="translate(-362.941 -168.021)"/>
    </g>
    <path id="Path_132" data-name="Path 132" class="cls-22" d="M514.672,448.26,500.6,446.418a.544.544,0,0,1-.441-.371.582.582,0,0,1,.12-.578l5.9-6.416a.523.523,0,0,1,.449-.169l10.76,1.261a.537.537,0,0,1,.4.268.586.586,0,0,1,.041.495l-2.59,7A.537.537,0,0,1,514.672,448.26Z" transform="translate(-430.327 -365.029)"/>
    <path id="Path_133" data-name="Path 133" class="cls-5" d="M514.672,448.26,500.6,446.418a.544.544,0,0,1-.441-.371.582.582,0,0,1,.12-.578l5.9-6.416a.523.523,0,0,1,.449-.169l10.76,1.261a.537.537,0,0,1,.4.268.586.586,0,0,1,.041.495l-2.59,7A.537.537,0,0,1,514.672,448.26Z" transform="translate(-430.327 -365.029)"/>
    <path id="Path_134" data-name="Path 134" class="cls-22" d="M513.773,447.313l-14.071-1.85a.546.546,0,0,1-.441-.372.584.584,0,0,1,.12-.579l5.9-6.416a.53.53,0,0,1,.449-.17l10.758,1.261a.538.538,0,0,1,.4.268.588.588,0,0,1,.042.5l-2.591,7A.54.54,0,0,1,513.773,447.313Z" transform="translate(-429.586 -364.248)"/>
    <path id="Path_135" data-name="Path 135" class="cls-17" d="M529.576,434.744l4.226.356,6.027-.411h-.1l-5.584-.565c-1.279-.491-.393-3.384-.393-3.384l-4.277.227-.342.018C527.619,434.689,529.576,434.744,529.576,434.744Z" transform="translate(-453.775 -358.382)"/>
    <path id="Path_136" data-name="Path 136" class="cls-5" d="M529.576,435.764l4.226.356,6.027-.411h-.1l-6.094.227-4.082-.464c-1.16-.319-.5-2.423-.077-3.483l-.342.018C527.619,435.709,529.576,435.764,529.576,435.764Z" transform="translate(-453.775 -359.403)"/>
    <path id="Path_137" data-name="Path 137" class="cls-23" d="M492.081,302.849l1.293,19.4.175,2.546a1.072,1.072,0,0,0,1.062,1.028H495l19.466-.123a.538.538,0,0,0,.4-.19.591.591,0,0,0,.138-.438l-.175-2.548-1.37-17.063a1.163,1.163,0,0,0-.748-.99l-18.553-2.911a1.681,1.681,0,0,0-1.675.2A1.262,1.262,0,0,0,492.081,302.849Z" transform="translate(-423.683 -252.78)"/>
    <path id="Path_138" data-name="Path 138" class="cls-18" d="M499.5,415l.175,2.546a1.072,1.072,0,0,0,1.062,1.028h.392l19.466-.123a.538.538,0,0,0,.4-.19.591.591,0,0,0,.138-.438l-.175-2.548Z" transform="translate(-429.809 -345.527)"/>
    <ellipse id="Ellipse_18" data-name="Ellipse 18" class="cls-19" cx="0.261" cy="0.546" rx="0.261" ry="0.546" transform="translate(82.48 71.038)"/>
    <path id="Path_139" data-name="Path 139" class="cls-17" d="M537.729,461.092s-5.323-2.1-6.758-.574c0,0-.235.466.731.574l3.9.328S537.207,461.583,537.729,461.092Z" transform="translate(-455.745 -382.246)"/>
    <path id="Path_140" data-name="Path 140" class="cls-18" d="M539.628,459.1c-1.051-.447-4.193-1.6-6.208-.324a6.733,6.733,0,0,1,3.454.482,4.552,4.552,0,0,0,2.9.389l.025-.046a.368.368,0,0,0,.024-.289A.348.348,0,0,0,539.628,459.1Z" transform="translate(-457.786 -380.804)"/>
    <path id="Path_141" data-name="Path 141" class="cls-18" d="M492.083,304.34l1.461,21.954a1.072,1.072,0,0,0,1.062,1.028H495a3.9,3.9,0,0,1-.68-.917s-1.435-22.06-1.54-22.606a1.132,1.132,0,0,0-.289-.539A1.262,1.262,0,0,0,492.083,304.34Z" transform="translate(-423.685 -254.271)"/>
    <path id="Path_142" data-name="Path 142" class="cls-5" d="M492.083,304.34l1.461,21.954a1.072,1.072,0,0,0,1.062,1.028H495a3.9,3.9,0,0,1-.68-.917s-1.435-22.06-1.54-22.606a1.132,1.132,0,0,0-.289-.539A1.262,1.262,0,0,0,492.083,304.34Z" transform="translate(-423.685 -254.271)"/>
    <path id="Path_143" data-name="Path 143" class="cls-5" d="M438.054,310.565c1.577-.367,5.256-1.5,5.256-1.5l.659-.139c-.009-2.4-.123-4.72-.165-5.5h-.016a24.313,24.313,0,0,0-3.892,1.65c-.75.577-3.073.427-3.073.427a10.275,10.275,0,0,0-6.618,3.71C427.2,312.724,436.484,310.926,438.054,310.565Z" transform="translate(-372.167 -254.41)"/>
    <path id="Path_144" data-name="Path 144" class="cls-13" d="M453.368,298.746a.952.952,0,0,1,.525.742.978.978,0,0,1-.32.86,6.56,6.56,0,0,1-3.206,1.7c-1.927.2-6.588,1.181-7.051,1.283a.543.543,0,0,0-.074.018c-.384.117-3.741,1.146-5.221,1.485-1.577.367-10.863,2.147-7.851-1.353a10.4,10.4,0,0,1,6.556-3.708.661.661,0,0,1,.121,0c.35.016,2.334.088,3.019-.431a6.34,6.34,0,0,1,1.128-.588,20.862,20.862,0,0,1,4.617-1.393l3.212-.587a.885.885,0,0,1,.54.073Z" transform="translate(-372.134 -248.965)"/>
    <path id="Path_145" data-name="Path 145" class="cls-14" d="M504.076,256l1.5-.143a6.2,6.2,0,0,0,2.868,1.283c1.228,0,1.98,1.65,1.98,1.65a21.5,21.5,0,0,0,2.732,1.144c.683.143,1.843.856,1.5,1.142s.068.929.683,1.428,1.577,3.072.75,3.43-3.072,1.071-3.68,1.428a1.626,1.626,0,0,1-1.365,0s-3.623-4.933-5.468-4a11.346,11.346,0,0,1-4.37.928l-1.98-4.356Z" transform="translate(-429.586 -215.56)"/>
    <path id="Path_146" data-name="Path 146" class="cls-3" d="M988.584,740.555a3.141,3.141,0,0,0-.4.786c-.026.068-.049.147-.074.222a.792.792,0,0,0-.138-.051,1.845,1.845,0,0,0-.625-.055,2.06,2.06,0,0,1,.012-.27c.025-.966-.084-2.312-.964-1.742-.846.55-.243,1.467.3,2.053l.14.145c-.5.367-.59,1.234-.675,2.134a5.066,5.066,0,0,1-1.3,2.444c-.049.059-.095.108-.137.156a1.722,1.722,0,0,0-1.4-.379l-.065-.247c-.392-1.483-1.207-4.051-2.246-4.614.044-.057.089-.116.137-.183.442-.6.937-1.5.2-1.73s-.8.779-.759,1.533a1.643,1.643,0,0,0,.021.269,1.06,1.06,0,0,0-.769.392l-.112-.141c-.6-.733-1.689-1.9-2.019-1.019-.308.821.654,1.888,1.33,2.506l.042.038c-.456,1.927,1.528,3.5,2.595,4.185l.137.088a17.2,17.2,0,0,0-2.379,5.217l4.121.77s2.731-2.467,2.383-4.784h.028c2.73-.572,3.352-3.619,2.926-5.426l.049-.022a3.118,3.118,0,0,0,1.263-1C990.97,740.718,989.367,739.465,988.584,740.555Z" transform="translate(-824.19 -610.288)"/>
    <path id="Path_147" data-name="Path 147" class="cls-5" d="M988.584,740.555a3.141,3.141,0,0,0-.4.786c-.026.068-.049.147-.074.222a.792.792,0,0,0-.138-.051,1.845,1.845,0,0,0-.625-.055,2.06,2.06,0,0,1,.012-.27c.025-.966-.084-2.312-.964-1.742-.846.55-.243,1.467.3,2.053l.14.145c-.5.367-.59,1.234-.675,2.134a5.066,5.066,0,0,1-1.3,2.444c-.049.059-.095.108-.137.156a1.722,1.722,0,0,0-1.4-.379l-.065-.247c-.392-1.483-1.207-4.051-2.246-4.614.044-.057.089-.116.137-.183.442-.6.937-1.5.2-1.73s-.8.779-.759,1.533a1.643,1.643,0,0,0,.021.269,1.06,1.06,0,0,0-.769.392l-.112-.141c-.6-.733-1.689-1.9-2.019-1.019-.308.821.654,1.888,1.33,2.506l.042.038c-.456,1.927,1.528,3.5,2.595,4.185l.137.088a17.2,17.2,0,0,0-2.379,5.217l4.121.77s2.731-2.467,2.383-4.784h.028c2.73-.572,3.352-3.619,2.926-5.426l.049-.022a3.118,3.118,0,0,0,1.263-1C990.97,740.718,989.367,739.465,988.584,740.555Z" transform="translate(-824.19 -610.288)"/>
    <path id="Path_148" data-name="Path 148" class="cls-3" d="M981.517,745.15l-.482,1.476s-.266-.2-.6-.51c-.676-.618-1.638-1.685-1.33-2.506.329-.882,1.423.282,2.018,1.019C981.359,744.923,981.517,745.15,981.517,745.15Z" transform="translate(-825.328 -613.64)"/>
    <path id="Path_149" data-name="Path 149" class="cls-3" d="M996.328,740.983a6.967,6.967,0,0,1-.473.583,7.442,7.442,0,0,1-.086-.777c-.04-.753.035-1.758.759-1.532S996.766,740.38,996.328,740.983Z" transform="translate(-839.118 -610.317)"/>
    <path id="Path_150" data-name="Path 150" class="cls-3" d="M1027.932,741.725c-.016.486-.061.874-.061.874a6.2,6.2,0,0,1-.6-.563c-.545-.59-1.148-1.505-.3-2.053C1027.853,739.414,1027.957,740.759,1027.932,741.725Z" transform="translate(-864.511 -610.826)"/>
    <path id="Path_151" data-name="Path 151" class="cls-3" d="M1040.075,746.038a3.118,3.118,0,0,1-1.263,1,3.29,3.29,0,0,1-.424.161l-.568-.834a6.1,6.1,0,0,1,.235-.81,3.131,3.131,0,0,1,.4-.786C1039.237,743.679,1040.841,744.933,1040.075,746.038Z" transform="translate(-873.808 -614.503)"/>
    <path id="Path_152" data-name="Path 152" class="cls-5" d="M987.659,750.58c.24.293.4.521.4.521l-.482,1.476s-.266-.2-.6-.51a2.943,2.943,0,0,1,.542-1.3C987.56,750.7,987.611,750.639,987.659,750.58Z" transform="translate(-831.868 -619.591)"/>
    <path id="Path_153" data-name="Path 153" class="cls-5" d="M996.369,747.954a6.908,6.908,0,0,1-.473.583,7.442,7.442,0,0,1-.086-.777.944.944,0,0,1,.559.194Z" transform="translate(-839.159 -617.288)"/>
    <path id="Path_154" data-name="Path 154" class="cls-3" d="M991.306,754.974l-1.2.55a7.156,7.156,0,0,1-.638-.378c-1.26-.81-3.793-2.851-2.1-5.256s3.114,1.908,3.679,4.018C991.218,754.542,991.306,754.974,991.306,754.974Z" transform="translate(-831.73 -618.449)"/>
    <path id="Path_155" data-name="Path 155" class="cls-5" d="M1030.67,750.4a.975.975,0,0,1,.662-.312c-.016.486-.061.874-.061.874a6.152,6.152,0,0,1-.6-.563Z" transform="translate(-867.911 -619.191)"/>
    <path id="Path_156" data-name="Path 156" class="cls-5" d="M1038.812,752.393a3.307,3.307,0,0,1-.424.161l-.568-.834a6.109,6.109,0,0,1,.235-.81A2.179,2.179,0,0,1,1038.812,752.393Z" transform="translate(-873.808 -619.86)"/>
    <path id="Path_157" data-name="Path 157" class="cls-3" d="M1015.157,758.327c-.067.015-.133.027-.2.039-4.018.638-1.325-1.63-1.325-1.63s.175-.174.426-.46a4.987,4.987,0,0,0,1.3-2.444c.126-1.362.273-2.64,1.81-2.266C1018.672,751.936,1018.959,757.531,1015.157,758.327Z" transform="translate(-853.129 -620.342)"/>
    <rect id="Rectangle_69" data-name="Rectangle 69" class="cls-24" width="7.676" height="2.112" transform="translate(154.277 148.45)"/>
    <rect id="Rectangle_70" data-name="Rectangle 70" class="cls-24" width="10.029" height="7.369" transform="translate(153.058 141.587)"/>
    <rect id="Rectangle_71" data-name="Rectangle 71" class="cls-5" width="7.676" height="2.112" transform="translate(154.277 148.45)"/>
    <rect id="Rectangle_72" data-name="Rectangle 72" class="cls-5" width="10.029" height="7.369" transform="translate(153.058 141.587)"/>
    <rect id="Rectangle_73" data-name="Rectangle 73" class="cls-24" width="7.676" height="2.112" transform="translate(154.782 148.45)"/>
    <path id="Path_158" data-name="Path 158" class="cls-5" d="M1003.577,775c.175.631.259,1.063.259,1.063l-1.2.55a7.192,7.192,0,0,1-.638-.378A3.08,3.08,0,0,1,1003.577,775Z" transform="translate(-844.264 -639.534)"/>
    <path id="Path_159" data-name="Path 159" class="cls-5" d="M1015.157,779.6c-.067.015-.133.027-.2.038-4.018.638-1.325-1.63-1.325-1.63s.175-.174.426-.46A2.825,2.825,0,0,1,1015.157,779.6Z" transform="translate(-853.129 -641.617)"/>
    <path id="Path_160" data-name="Path 160" class="cls-3" d="M989.22,782.477s2.25-8.432,5.4-5.829-1.283,6.6-1.283,6.6Z" transform="translate(-833.723 -640.473)"/>
    <ellipse id="Ellipse_19" data-name="Ellipse 19" class="cls-5" cx="0.252" cy="0.264" rx="0.252" ry="0.264" transform="translate(156.38 132.5)"/>
    <ellipse id="Ellipse_20" data-name="Ellipse 20" class="cls-5" cx="0.252" cy="0.264" rx="0.252" ry="0.264" transform="translate(156.359 133.732)"/>
    <ellipse id="Ellipse_21" data-name="Ellipse 21" class="cls-5" cx="0.252" cy="0.264" rx="0.252" ry="0.264" transform="translate(163.676 132.742)"/>
    <ellipse id="Ellipse_22" data-name="Ellipse 22" class="cls-5" cx="0.252" cy="0.264" rx="0.252" ry="0.264" transform="translate(157.788 139.057)"/>
    <ellipse id="Ellipse_23" data-name="Ellipse 23" class="cls-5" cx="0.252" cy="0.264" rx="0.252" ry="0.264" transform="translate(163.15 134.788)"/>
    <ellipse id="Ellipse_24" data-name="Ellipse 24" class="cls-5" cx="0.252" cy="0.264" rx="0.252" ry="0.264" transform="translate(160.543 137.517)"/>
    <ellipse id="Ellipse_25" data-name="Ellipse 25" class="cls-5" cx="0.252" cy="0.264" rx="0.252" ry="0.264" transform="translate(157.242 133.028)"/>
    <ellipse id="Ellipse_26" data-name="Ellipse 26" class="cls-5" cx="0.252" cy="0.264" rx="0.252" ry="0.264" transform="translate(162.982 133.534)"/>
    <ellipse id="Ellipse_27" data-name="Ellipse 27" class="cls-5" cx="0.252" cy="0.264" rx="0.252" ry="0.264" transform="translate(162.12 135.579)"/>
    <ellipse id="Ellipse_28" data-name="Ellipse 28" class="cls-5" cx="0.252" cy="0.264" rx="0.252" ry="0.264" transform="translate(159.47 138.859)"/>
    <ellipse id="Ellipse_29" data-name="Ellipse 29" class="cls-5" cx="0.252" cy="0.264" rx="0.252" ry="0.264" transform="translate(158.924 137.561)"/>
    <ellipse id="Ellipse_30" data-name="Ellipse 30" class="cls-5" cx="0.252" cy="0.264" rx="0.252" ry="0.264" transform="translate(157.62 134.634)"/>
    <rect id="Rectangle_74" data-name="Rectangle 74" class="cls-5" width="7.676" height="0.772" transform="translate(154.782 148.45)"/>
    <rect id="Rectangle_75" data-name="Rectangle 75" class="cls-24" width="10.029" height="7.369" transform="translate(153.562 141.587)"/>
    <ellipse id="Ellipse_31" data-name="Ellipse 31" class="cls-5" cx="0.252" cy="0.264" rx="0.252" ry="0.264" transform="translate(159.807 140.047)"/>
    <ellipse id="Ellipse_32" data-name="Ellipse 32" class="cls-5" cx="0.252" cy="0.264" rx="0.252" ry="0.264" transform="translate(158.293 140.377)"/>
  </g>
</svg>
