<svg xmlns="http://www.w3.org/2000/svg" xmlns:xlink="http://www.w3.org/1999/xlink" viewBox="0 0 467.504 331.201">
  <defs>
    <style>
      .cls-1, .cls-3 {
        fill: #2e2079;
      }

      .cls-1, .cls-13, .cls-5 {
        opacity: 0.1;
      }

      .cls-2 {
        opacity: 0.5;
      }

      .cls-4 {
        fill: none;
        stroke: #535461;
        stroke-miterlimit: 10;
        stroke-width: 2px;
      }

      .cls-6 {
        fill: #ffd037;
      }

      .cls-7 {
        fill: #a8a8a8;
      }

      .cls-8 {
        opacity: 0.2;
      }

      .cls-9 {
        fill: #e6e6f0;
      }

      .cls-10 {
        fill: #fdc2cc;
      }

      .cls-11 {
        fill: #565171;
      }

      .cls-12 {
        fill: #b45181;
      }

      .cls-14 {
        fill: #f569bc;
      }

      .cls-15 {
        fill: #f7df1e;
      }

      .cls-16 {
        fill: url(#linear-gradient);
      }

      .cls-17 {
        fill: #4f4d59;
      }

      .cls-18 {
        fill: #c48c96;
      }

      .cls-19 {
        fill: #714b4f;
      }

      .cls-20 {
        fill: #ba7855;
      }

      .cls-21 {
        fill: #503f43;
      }

      .cls-22 {
        fill: #e44d26;
      }

      .cls-23 {
        fill: #f16529;
      }

      .cls-24 {
        fill: #ebebeb;
      }

      .cls-25, .cls-31 {
        fill: #fff;
      }

      .cls-26 {
        fill: url(#linear-gradient-2);
      }

      .cls-27, .cls-34 {
        opacity: 0.05;
      }

      .cls-28 {
        fill: #264de4;
      }

      .cls-29 {
        fill: #2965f1;
      }

      .cls-30 {
        fill: #47465a;
      }

      .cls-31 {
        opacity: 0.3;
      }

      .cls-32 {
        fill: #e1a0a7;
      }

      .cls-33 {
        fill: #8f5a6a;
      }
    </style>
    <linearGradient id="linear-gradient" x1="0.5" y1="1" x2="0.5" gradientUnits="objectBoundingBox">
      <stop offset="0" stop-color="gray" stop-opacity="0.251"/>
      <stop offset="0.54" stop-color="gray" stop-opacity="0.122"/>
      <stop offset="1" stop-color="gray" stop-opacity="0.102"/>
    </linearGradient>
    <linearGradient id="linear-gradient-2" x1="0.5" y1="1.001" x2="0.5" y2="0" xlink:href="#linear-gradient"/>
  </defs>
  <g id="undraw_static_assets_rpm6_1_" data-name="undraw_static_assets_rpm6 (1)" transform="translate(0.003 -0.09)">
    <ellipse id="Ellipse_47" data-name="Ellipse 47" class="cls-1" cx="95.93" cy="18.645" rx="95.93" ry="18.645" transform="translate(273.82 247.019)"/>
    <g id="Group_45" data-name="Group 45" class="cls-2" transform="translate(273.934 44.21)">
      <path id="Path_444" data-name="Path 444" class="cls-3" d="M702.189,185.21a5.272,5.272,0,0,0-3.658,3.944c-1.53,5.133,2.024,8.624.853,13.975a10.44,10.44,0,0,1-1.815,3.921c-1.43,1.938-2.982,2.855-4.489,4.212a13.389,13.389,0,0,0-3.944,6.477,17.928,17.928,0,0,0-.177,8.419,33.021,33.021,0,0,0,2.247,5.9,43.566,43.566,0,0,1,2.319,7.43,18.09,18.09,0,0,1,.508,3.776,33.218,33.218,0,0,1-.454,5.047L691.4,263.481a45.591,45.591,0,0,0-.595,6,29.779,29.779,0,0,0,.694,5.987c.762,4.012,1.584,8.17,3.331,10.294s4.725,1.362,6.554-2.937c1.738-4.112,1.779-9.6,3.313-13.993,2.419-6.922,7.226-7.852,9.894-14.456,2.56-6.354,1.775-14.106,3.073-21.332.908-5.179,2.909-9.9,4.085-15.014a47.553,47.553,0,0,0,.172-20.678,27.482,27.482,0,0,0-6.436-12.5c-1.13-1.248-2.342-2.36-3.763-2.474-1.511-.118-2.832,1.784-4.325,2.356C705.679,185.406,703.945,184.711,702.189,185.21Z" transform="translate(-688.542 -182.368)"/>
      <path id="Path_445" data-name="Path 445" class="cls-4" d="M720.606,183.23s-2.56,65.512-13.326,104.141" transform="translate(-698.775 -182.839)"/>
      <path id="Path_446" data-name="Path 446" class="cls-4" d="M710.41,198s11.506,10.475,9.323,30.409" transform="translate(-700.485 -190.905)"/>
      <path id="Path_447" data-name="Path 447" class="cls-4" d="M689.14,263.68s18.886,3.8,17.483,15.1" transform="translate(-688.868 -226.775)"/>
      <path id="Path_448" data-name="Path 448" class="cls-4" d="M744.781,215.07s-7.643,6.69-14.451,25.639" transform="translate(-711.363 -200.228)"/>
      <path id="Path_449" data-name="Path 449" class="cls-4" d="M734.41,328.957s-5.215,4.085-9.4-10.217" transform="translate(-708.458 -256.845)"/>
      <path id="Path_450" data-name="Path 450" class="cls-4" d="M696.14,349.977s10.634-1.389,11.615-8.047" transform="translate(-692.691 -269.509)"/>
    </g>
    <path id="Path_451" data-name="Path 451" class="cls-3" d="M746.543,88.183c-2.632.39-5.8,1.611-7.1,5.374-2.555,7.38,5.21,12.967,3.422,20.678a11.587,11.587,0,0,1-3.241,5.56c-2.723,2.682-5.837,3.853-8.787,5.673a16.567,16.567,0,0,0-7.4,9.077,19.121,19.121,0,0,0,.631,12.377c1.384,3.486,3.477,6.086,5.347,8.955a60.685,60.685,0,0,1,5.669,11.211,21.3,21.3,0,0,1,1.507,5.6,33.927,33.927,0,0,1-.368,7.38l-2.7,22.122a46.305,46.305,0,0,0-.517,8.76,34.411,34.411,0,0,0,2.151,8.9c2.052,6,4.248,12.255,8.12,15.559s9.944,2.6,13.217-3.549c3.114-5.85,2.542-13.925,5.2-20.211,4.185-9.908,14.025-10.711,18.759-20.116,4.539-9.023,2-20.565,3.826-31.049,1.307-7.512,4.847-14.229,6.663-21.622a50.929,50.929,0,0,0-2.1-30.409,46.663,46.663,0,0,0-14.8-19.167c-2.487-1.974-5.124-3.758-8.079-4.085-3.141-.349-5.651,2.292-8.669,2.959C753.782,88.882,750.115,87.652,746.543,88.183Z" transform="translate(-433.254 -85.07)"/>
    <path id="Path_452" data-name="Path 452" class="cls-4" d="M793.6,86s2.478,96.171-15.232,151.784" transform="translate(-463.666 -85.529)"/>
    <path id="Path_453" data-name="Path 453" class="cls-4" d="M759.38,104.68s25.054,16.793,22.907,45.914" transform="translate(-453.295 -95.73)"/>
    <path id="Path_454" data-name="Path 454" class="cls-4" d="M723.15,198.85s39.541,7.834,37.98,24.3" transform="translate(-433.508 -147.159)"/>
    <path id="Path_455" data-name="Path 455" class="cls-4" d="M836.215,135.92s-15.028,8.946-26.865,36.042" transform="translate(-480.585 -112.791)"/>
    <path id="Path_456" data-name="Path 456" class="cls-4" d="M824.565,300.342s-10.3,5.446-20.665-16.162" transform="translate(-477.608 -193.76)"/>
    <path id="Path_457" data-name="Path 457" class="cls-4" d="M749,328.4s21.845-.785,23.089-10.475" transform="translate(-447.626 -212.187)"/>
    <path id="Path_458" data-name="Path 458" class="cls-3" d="M139.646,663.66s3.8,4.993-1.756,12.482-10.153,13.852-8.288,18.536c0,0,8.388-13.948,15.214-14.143S147.158,672.047,139.646,663.66Z" transform="translate(-109.125 -401.005)"/>
    <path id="Path_459" data-name="Path 459" class="cls-5" d="M139.936,663.66a6.16,6.16,0,0,1,.8,1.561c6.663,7.825,10.208,15.128,3.808,15.314-5.964.172-13.117,10.834-14.833,13.53a5.788,5.788,0,0,0,.2.613s8.388-13.948,15.214-14.143S147.447,672.047,139.936,663.66Z" transform="translate(-109.414 -401.005)"/>
    <path id="Path_460" data-name="Path 460" class="cls-6" d="M166.728,676.291c0,1.752-.2,3.177-.454,3.177s-.454-1.421-.454-3.177.245-.908.486-.908S166.728,674.539,166.728,676.291Z" transform="translate(-129.135 -407.295)"/>
    <path id="Path_461" data-name="Path 461" class="cls-6" d="M169.562,680.788c-1.539.84-2.878,1.362-2.991,1.13s1.035-1.067,2.573-1.9.93-.227,1.048,0S171.1,679.948,169.562,680.788Z" transform="translate(-129.541 -409.704)"/>
    <path id="Path_462" data-name="Path 462" class="cls-3" d="M97.726,663.66s-3.8,4.993,1.756,12.482,10.144,13.848,8.288,18.532c0,0-8.388-13.947-15.214-14.143S90.205,672.047,97.726,663.66Z" transform="translate(-87.284 -401.005)"/>
    <path id="Path_463" data-name="Path 463" class="cls-5" d="M97.726,663.66a6.16,6.16,0,0,0-.776,1.561c-6.663,7.825-10.208,15.128-3.808,15.314,5.964.172,13.117,10.834,14.833,13.53a5.784,5.784,0,0,1-.2.613s-8.388-13.947-15.214-14.143S90.205,672.047,97.726,663.66Z" transform="translate(-87.284 -401.005)"/>
    <path id="Path_464" data-name="Path 464" class="cls-6" d="M92.4,676.291c0,1.752.2,3.177.454,3.177s.454-1.421.454-3.177-.245-.908-.486-.908S92.4,674.539,92.4,676.291Z" transform="translate(-89.038 -407.295)"/>
    <path id="Path_465" data-name="Path 465" class="cls-6" d="M85.923,680.788c1.539.84,2.878,1.362,2.991,1.13s-1.035-1.067-2.573-1.9-.93-.227-1.048,0S84.389,679.948,85.923,680.788Z" transform="translate(-84.99 -409.704)"/>
    <path id="Path_466" data-name="Path 466" class="cls-7" d="M95.07,723.648s10.634-.327,13.839-2.61,16.339-4.993,17.152-1.362,15.981,18.2,3.976,18.3-27.895-1.87-31.095-3.817S95.07,723.648,95.07,723.648Z" transform="translate(-90.497 -430.629)"/>
    <path id="Path_467" data-name="Path 467" class="cls-8" d="M130.25,743.611c-12,.1-27.895-1.87-31.095-3.817-2.437-1.484-3.409-6.808-3.731-9.264H95.07s.672,8.578,3.872,10.525,19.09,3.917,31.095,3.817c3.468-.027,4.661-1.262,4.6-3.086C134.153,742.9,132.832,743.592,130.25,743.611Z" transform="translate(-90.497 -437.524)"/>
    <path id="Path_468" data-name="Path 468" class="cls-3" d="M1047.032,649a5.3,5.3,0,0,0,1.738-2.623,2.329,2.329,0,0,0-1.216-2.673c-1.117-.427-2.31.345-3.214,1.13s-1.943,1.675-3.127,1.507a4.757,4.757,0,0,0,1.47-4.453,1.86,1.86,0,0,0-.408-.908c-.622-.663-1.743-.377-2.487.145-2.36,1.661-3.018,4.866-3.032,7.752a14.861,14.861,0,0,1-.045-3.177,3.28,3.28,0,0,0-1.2-2.823,3.63,3.63,0,0,0-1.816-.431,3.779,3.779,0,0,0-2.968.844,2.919,2.919,0,0,0,.118,3.631,11.813,11.813,0,0,0,3.073,2.46,6.808,6.808,0,0,1,2.2,2.092,2.08,2.08,0,0,1,.163.372h6.649A18.527,18.527,0,0,0,1047.032,649Z" transform="translate(-601.167 -388.406)"/>
    <path id="Path_469" data-name="Path 469" class="cls-1" d="M202.269,363.5c14.442,18.364,8.832,45.192-.345,66.674-3.073,7.194-6.549,14.805-5.251,22.517,1.584,9.431,9.985,16.339,18.845,19.97a56.094,56.094,0,0,0,50.2-4.135c12.795-7.961,21.958-20.905,34.971-28.5,21.786-12.708,49.5-7.911,73.146.844,16.73,6.2,35.021,14.256,51.646,7.779,11.7-4.539,19.784-15.645,24.191-27.4,2.129-5.678,3.672-11.8,7.716-16.339a28.768,28.768,0,0,1,8.8-6.173c29.5-14.619,66.719-6.808,95.349-23,19.34-10.947,31.721-31.6,37.218-53.139s4.843-44.121,3.449-66.3c-.989-15.763-2.764-32.588-12.836-44.756-10.652-12.867-28.939-17.656-45.464-15.209s-31.512,11.206-44.675,21.473c-16.471,12.831-31.744,28.812-51.968,34.013-13.77,3.54-28.258,1.6-42.464.935-23.747-1.121-47.5,1.362-71.113,4.085-22.607,2.614-45.387,5.492-66.914,12.845-15.241,5.206-27.459,14.651-41.852,21.25-9.382,4.3-19.612,5.492-28.49,10.97-10.943,6.749-20.969,18.491-18.155,32.225C180.915,347.2,194.6,353.754,202.269,363.5Z" transform="translate(-135.674 -145.445)"/>
    <ellipse id="Ellipse_48" data-name="Ellipse 48" class="cls-1" cx="194.108" cy="18.645" rx="194.108" ry="18.645" transform="translate(56.587 180.754)"/>
    <ellipse id="Ellipse_49" data-name="Ellipse 49" class="cls-1" cx="95.93" cy="18.645" rx="95.93" ry="18.645" transform="translate(5.581 288.322)"/>
    <path id="Path_470" data-name="Path 470" class="cls-9" d="M522.88,511.48l-1.52,2.21s1.657,2.21,1.815,2.487,4.834-.136,4.834-.136l.413-1.657-.69-1.933Z" transform="translate(-323.305 -317.895)"/>
    <path id="Path_471" data-name="Path 471" class="cls-10" d="M323.431,423.67l-3.041.549,1.933,3.735,2.074,1.1,1.933,1.38.554-1.516-1.384-2.9Z" transform="translate(-174.975 -231.329)"/>
    <path id="Path_472" data-name="Path 472" class="cls-11" d="M510.809,429.468s16.167,3.867,19.2,8.17c0,0,2.764,2.351,0,6.631s-6.631,13.957-6.631,13.957-2.764,9.4-3.867,10.085-7.462,1.244-8.015-1.362c0,0,3.59-5.664,3.59-8.292s5.941-15.059,5.941-15.059-13.539-1.52-17.824-.554S505.145,427.947,510.809,429.468Z" transform="translate(-312.614 -273.05)"/>
    <path id="Path_473" data-name="Path 473" class="cls-5" d="M510.809,429.468s16.167,3.867,19.2,8.17c0,0,2.764,2.351,0,6.631s-6.631,13.957-6.631,13.957-2.764,9.4-3.867,10.085-7.462,1.244-8.015-1.362c0,0,3.59-5.664,3.59-8.292s5.941-15.059,5.941-15.059-13.539-1.52-17.824-.554S505.145,427.947,510.809,429.468Z" transform="translate(-312.614 -273.05)"/>
    <path id="Path_474" data-name="Path 474" class="cls-11" d="M457.164,433.348c-.032.8-.118,1.707-.241,2.678a158.415,158.415,0,0,1-3.767,17.5,61.509,61.509,0,0,0-3.731,10.226c-.831,4.008-6.495,4.993-6.495,4.993s-15.477,1.815-18.654,1.107-8.17,2.074-10.639,1.657-4.008-6.218-4.008-6.218a29.956,29.956,0,0,0,12.436-2.623c6.354-2.9,15.477-1.52,15.477-1.52a5.2,5.2,0,0,0,3.177-2.623c.967-2.074.967-14.646.69-15.477-1.815-5.446-1.666-8.941-1.144-10.979a5.478,5.478,0,0,1,1.144-2.424Z" transform="translate(-262.286 -273.2)"/>
    <path id="Path_475" data-name="Path 475" class="cls-5" d="M494.049,433.321c-.032.8-.118,1.707-.241,2.678-1.389.109-5.283.213-8.17-1.57-2.723-1.67-6.686-2.238-8.469-2.415a5.478,5.478,0,0,1,1.144-2.424Z" transform="translate(-299.172 -273.173)"/>
    <path id="Path_476" data-name="Path 476" class="cls-9" d="M494.824,426.108c-.645,1.815-1.634,3.944-1.634,3.944s-5.111.69-8.705-1.521-9.4-2.487-9.4-2.487c.94-.576,1.575-2.328,1.97-3.862a24.491,24.491,0,0,0,.517-2.632s16.993,3.454,17.7,4.008C495.542,423.776,495.26,424.874,494.824,426.108Z" transform="translate(-298.036 -267.69)"/>
    <path id="Path_477" data-name="Path 477" class="cls-10" d="M558.027,288.433l-20.61,12.441-2.047,1.235v-6.077l1.421-.681,17.37-8.3s.831-15.059,3.041-12.708S558.027,288.433,558.027,288.433Z" transform="translate(-330.957 -188.25)"/>
    <path id="Path_478" data-name="Path 478" class="cls-5" d="M537.417,326.454l-2.047,1.235v-6.077l1.421-.681A44.726,44.726,0,0,0,537.417,326.454Z" transform="translate(-330.957 -213.83)"/>
    <path id="Path_479" data-name="Path 479" class="cls-12" d="M504.93,327.695l14.783-8.565s.277,8.292,1.933,9.531c0,0-6.077,1.815-8.428,5.664Z" transform="translate(-314.332 -212.847)"/>
    <path id="Path_480" data-name="Path 480" class="cls-5" d="M504.93,327.695l14.783-8.565s.277,8.292,1.933,9.531c0,0-6.077,1.815-8.428,5.664Z" transform="translate(-314.332 -212.847)"/>
    <path id="Path_481" data-name="Path 481" class="cls-10" d="M565.57,336.756a92.213,92.213,0,0,1-11.687,4.189,9.178,9.178,0,0,1-3.236.372c-3.177-.554.831-4.539.831-4.539l1.67-.259,8.969-1.4s.967-13.816,2.623-12.708S565.57,336.756,565.57,336.756Z" transform="translate(-338.63 -214.606)"/>
    <path id="Path_482" data-name="Path 482" class="cls-10" d="M501.25,319.029s-5.941,4.421-3.731,9.949-11.469-3.318-11.469-3.318,4.421-6.631,5.387-11.605S501.25,319.029,501.25,319.029Z" transform="translate(-304.022 -209.315)"/>
    <path id="Path_483" data-name="Path 483" class="cls-5" d="M497.2,426.108a31.316,31.316,0,0,0-7.988-1.861,42.615,42.615,0,0,1-9.772-2.065,24.476,24.476,0,0,0,.517-2.632s16.993,3.454,17.7,4.008C497.917,423.776,497.636,424.874,497.2,426.108Z" transform="translate(-300.412 -267.69)"/>
    <path id="Path_484" data-name="Path 484" class="cls-5" d="M553.872,358a9.178,9.178,0,0,1-3.236.372c-3.177-.554.831-4.539.831-4.539l1.67-.259A4.871,4.871,0,0,1,553.872,358Z" transform="translate(-338.625 -231.656)"/>
    <path id="Path_485" data-name="Path 485" class="cls-12" d="M485.658,332.165s-5.387-.136-7.321,2.074-1.521,8.17-1.521,8.17-.4,11.932,2.623,18.609a.908.908,0,0,1,.032.685c-.032.082-.032.032-.032.032s-1.934,8.705-3.867,10.226,4.144,3.318,11.347,4.144,10.085,2.9,10.085,2.9a7.205,7.205,0,0,0,1.362-4.421c.118-3.059-1.92-25.285-1.92-25.285s7.6,1.934,12.159-.413c0,0,2.074,1.107,4.008-1.934s-1.362-6.354-1.362-6.354-3.041,3.041-11.469-.967S488.277,332.029,485.658,332.165Z" transform="translate(-298.102 -219.964)"/>
    <path id="Path_486" data-name="Path 486" class="cls-9" d="M405.217,509.35H403.56V511.7l1.657,3.731s2.21.413,2.351.413,1.933-.413,1.933-.413l.554-.967S403.973,512.109,405.217,509.35Z" transform="translate(-258.971 -316.732)"/>
    <path id="Path_487" data-name="Path 487" class="cls-12" d="M518.677,513.941l-2.487,5.528,10.5,4.993,8.292.277s.69-1.933-2.074-2.9l-2.21-.413s-2.9-5.251-3.177-7.716c0,0-2.764.554-3.177,2.623A4.094,4.094,0,0,1,518.677,513.941Z" transform="translate(-320.482 -319.113)"/>
    <path id="Path_488" data-name="Path 488" class="cls-12" d="M398.987,508.13l-.844.69-3.713,3.041,8.565,11.347s4.834,2.074,7.049,0c0,0,1.362-1.362-1.657-2.487a1.9,1.9,0,0,1-2.351-1.933c0-2.346.554-4.834,1.362-5.387,0,0-2.074-.69-2.623-.136a8.766,8.766,0,0,0-1.107,1.52S398.71,512.828,398.987,508.13Z" transform="translate(-253.985 -316.066)"/>
    <path id="Path_489" data-name="Path 489" class="cls-5" d="M496.654,314.664a16.788,16.788,0,0,1-.554,2.07,7.185,7.185,0,0,0,9.2,3.953,11.425,11.425,0,0,1,1.166-1.048S497.62,309.69,496.654,314.664Z" transform="translate(-309.51 -209.648)"/>
    <path id="Path_490" data-name="Path 490" class="cls-5" d="M495.64,357s4.285,5.664,10.5,5.805" transform="translate(-309.259 -233.529)"/>
    <g id="Group_46" data-name="Group 46" class="cls-13" transform="translate(176.962 112.22)">
      <path id="Path_491" data-name="Path 491" d="M551.263,369.105a1.559,1.559,0,0,1-.254-.1q-.2.1-.409.2a2.582,2.582,0,0,0,.663-.1Z" transform="translate(-516.237 -352.308)"/>
      <path id="Path_492" data-name="Path 492" d="M550.931,351.334a6.847,6.847,0,0,0-.481-.554,5.147,5.147,0,0,1-3.15,1.08A7.625,7.625,0,0,0,550.931,351.334Z" transform="translate(-514.434 -342.352)"/>
      <path id="Path_493" data-name="Path 493" d="M524.71,369.92l.027.3a27.441,27.441,0,0,0,5.528.454A28.766,28.766,0,0,1,524.71,369.92Z" transform="translate(-502.097 -352.805)"/>
      <path id="Path_494" data-name="Path 494" d="M487.97,376.141c-7.185-.831-13.262-2.623-11.347-4.144s3.867-10.226,3.867-10.226,0,.05.032-.032a.908.908,0,0,0-.032-.685c-3.027-6.695-2.623-18.609-2.623-18.609s-.413-5.941,1.52-8.17c1.439-1.648,4.793-1.988,6.413-2.056a2.934,2.934,0,0,0-.454,0s-5.387-.136-7.321,2.074-1.52,8.17-1.52,8.17-.4,11.932,2.623,18.609a.908.908,0,0,1,.032.685c-.032.082-.032.032-.032.032s-1.92,8.678-3.872,10.2,4.144,3.318,11.347,4.144,10.085,2.9,10.085,2.9a3.542,3.542,0,0,0,.381-.558A28.357,28.357,0,0,0,487.97,376.141Z" transform="translate(-474.888 -332.211)"/>
    </g>
    <circle id="Ellipse_50" data-name="Ellipse 50" class="cls-10" cx="7.185" cy="7.185" r="7.185" transform="translate(186.313 96.865)"/>
    <path id="Path_495" data-name="Path 495" class="cls-5" d="M492.1,296.8c-.595,1.489-2.369,2.051-3.926,2.437-2.224.545-4.62,1.08-6.749.236a1.475,1.475,0,0,0-.908-.177,1.207,1.207,0,0,0-.6.522c-2.347,3.341-1.965,7.793-2.573,11.832a6.572,6.572,0,0,1-1.362,3.495c-1.652,1.815-4.77,1.747-6.291,3.676-1,1.271-1.012,3.036-1,4.657q0,2.592-.045,5.188a7.661,7.661,0,0,1-.595,3.318c-.871,1.707-2.814,2.519-4.607,3.177a7.9,7.9,0,0,1-3.468.726,2.71,2.71,0,0,1-2.551-2.106c-.213-1.625,1.461-2.76,2.614-3.931a10.565,10.565,0,0,0,2.669-7.2,7.715,7.715,0,0,0-.454-3.118c-.422-1.03-1.176-1.9-1.629-2.914-1.4-3.132.327-6.754,2.392-9.5s4.6-5.415,5.043-8.814a12.222,12.222,0,0,1,.313-2.183c.318-.989,1.071-3.722,1.9-4.348a9.881,9.881,0,0,1,4.539-1.888c1.275-.186,2.578-.118,3.844-.363,1.48-.286,2.855-.989,4.334-1.253,3.2-.567,6.672,3.15,8.074,6.082C491.454,295.251,492.467,295.886,492.1,296.8Z" transform="translate(-288.38 -195.962)"/>
    <path id="Path_496" data-name="Path 496" class="cls-14" d="M492.1,296.189c-.595,1.489-2.369,2.052-3.926,2.437-2.224.545-4.62,1.08-6.749.236a1.475,1.475,0,0,0-.908-.177,1.207,1.207,0,0,0-.6.522c-2.347,3.341-1.965,7.793-2.573,11.832a6.572,6.572,0,0,1-1.362,3.495c-1.652,1.815-4.77,1.747-6.291,3.676-1,1.271-1.012,3.036-1,4.657q0,2.592-.045,5.188a7.661,7.661,0,0,1-.595,3.318c-.871,1.707-2.814,2.519-4.607,3.177a7.9,7.9,0,0,1-3.468.726,2.71,2.71,0,0,1-2.551-2.106c-.213-1.625,1.461-2.76,2.614-3.931a10.565,10.565,0,0,0,2.669-7.2,7.715,7.715,0,0,0-.454-3.118c-.422-1.03-1.176-1.9-1.629-2.914-1.4-3.132.327-6.754,2.392-9.495s4.6-5.415,5.043-8.814a12.221,12.221,0,0,1,.313-2.183c.318-.989,1.071-3.722,1.9-4.348a9.88,9.88,0,0,1,4.539-1.888c1.275-.186,2.578-.118,3.844-.363,1.48-.286,2.855-.989,4.334-1.253,3.2-.567,6.672,3.15,8.074,6.082C491.454,294.641,492.467,295.276,492.1,296.189Z" transform="translate(-288.38 -195.629)"/>
    <path id="Path_497" data-name="Path 497" class="cls-15" d="M585,276.09H704.446V395.526H585Z" transform="translate(-358.061 -189.342)"/>
    <path id="Path_498" data-name="Path 498" d="M654.21,441.092l9.141-5.533c1.766,3.127,3.368,5.773,7.217,5.773,3.69,0,6.014-1.443,6.014-7.053V396.114h11.224v38.32c0,11.624-6.808,16.916-16.757,16.916-8.978,0-14.188-4.652-16.834-10.262m39.687-1.2,9.136-5.292c2.406,3.931,5.533,6.808,11.065,6.808,4.652,0,7.616-2.324,7.616-5.533,0-3.849-3.046-5.21-8.17-7.457l-2.8-1.2c-8.1-3.445-13.471-7.775-13.471-16.916,0-8.419,6.413-14.833,16.435-14.833,7.135,0,12.255,2.487,15.954,8.978l-8.737,5.614c-1.924-3.449-4.008-4.811-7.217-4.811-3.286,0-5.374,2.083-5.374,4.811,0,3.368,2.083,4.729,6.894,6.808l2.8,1.2c9.531,4.085,14.914,8.256,14.914,17.637,0,10.1-7.938,15.636-18.609,15.636-10.439,0-17.156-4.993-20.424-11.465" transform="translate(-395.858 -254.533)"/>
    <path id="Path_499" data-name="Path 499" class="cls-16" d="M875.574,509.439a8.553,8.553,0,0,1-7.539-4.666,16.733,16.733,0,0,0-1.983-2.819,9.532,9.532,0,0,1-1.393-5.061c.159-3.7-3.7-23.96-3.7-23.96s.481-7.716-3.377-12.54c-2.542-3.177-6.2-12.255-8.4-18.119a1.213,1.213,0,0,0,.517.272l-.091-.5h.091l-1.139-6.259a28.541,28.541,0,0,1-4.157-6.3l.259-.055,3.413-.717s5.546-7.884,5.9-11.76h1.094a133.447,133.447,0,0,1,15.368.8h0c0-.023-.036-.123-.082-.281h0a19.287,19.287,0,0,1-.5-2.374h.318l3.177-.209s10.934-12.218,6.912-14.469-8.2,10.13-8.2,10.13l-1.362.245-.368.068c.036-.054.073-.1.113-.154s-17.846-.8-20.6-5.147c0,0-7.879-6.273-8.2-10.439a4.716,4.716,0,0,0-2.832-4.012,6.182,6.182,0,0,0-3.127-.586l-3.69.254.259.454h-.1a12.4,12.4,0,0,1-.581-1.634h.077c-.027-.113-.05-.227-.073-.34a8.682,8.682,0,0,0,6.4-10.693,3.472,3.472,0,0,0,1.085-.032,3.18,3.18,0,0,0,2.356-3.036v-.322a4.666,4.666,0,0,0-1.793-3.586,26.212,26.212,0,0,1-2.269-1.729A17.019,17.019,0,0,1,835.5,367a8.488,8.488,0,0,0-4.357-3.39,4.008,4.008,0,0,0-3.985.454c-.526.495-.831,1.212-1.421,1.629-.849.608-2,.427-3.041.549a5.8,5.8,0,0,0-4.371,3.272,7.539,7.539,0,0,0-.717,3.458,9.233,9.233,0,0,0,.291,2.428c.2.79.495,1.552.713,2.342.454,1.634.558,3.354,1.08,4.965a6.25,6.25,0,0,0,2.011,3.055l-.154.663c-.1,0-2.605.558-4.334,4.339-1.362,2.982-6,6.059-8.034,7.3a3.35,3.35,0,0,0-1.516,2.106,10.939,10.939,0,0,0-.259,2.673,18.509,18.509,0,0,0,1.924,8.02,64.211,64.211,0,0,0,6.109,11.093s.2,2.365.209,4.856a14.332,14.332,0,0,1-.531,4.63,16.839,16.839,0,0,0-.427,5.052c0,4.366.427,10.062.427,10.062s1.23.236,3.132.513l1.185,20.842a10.021,10.021,0,0,1-2.269,6.962,15.406,15.406,0,0,1-2.855,2.723c-3.377,2.41-10.612,27.818-10.612,27.818a8.914,8.914,0,0,1,.935.068l-2.224,6.2s8.887,6.808,14.292,4.947a5.238,5.238,0,0,1,1.815-.254c1.067,0,3.35-.844,2.079-1.956a82.375,82.375,0,0,1-6.931-7.207,3.677,3.677,0,0,1,.5.295v-.05l.077.05a5.106,5.106,0,0,1,.059-.658l-.077-.027c.163-1.67.681-5.9,1.707-6.391,1.284-.644,10.775-19.457,10.775-19.457l9.486-24.441s7.557,13.026,13.988,15.273v5.446s3.536,16.081,4.825,17.846,0,8.841,0,8.841a4.408,4.408,0,0,0,.867.763l-1.03,5.828s7.4-.322,19.939,3.536C874.771,514.1,879.6,512.013,875.574,509.439Zm-29.583-84.093-1.566.39-.309.077c-.032-.2-.054-.309-.054-.309a3.177,3.177,0,0,1-1.139.277,20.945,20.945,0,0,1-.953-5.424,36.546,36.546,0,0,1-.958-6.717,4.817,4.817,0,0,1,.635-2.769l.522.041.363.345.027.023.186.168h0l.2.172.032.027.209.186.036.032.213.182h0l.241.2.054.045.254.2h0l.25.2.059.045.277.209.059.041.263.2.045.032.3.213.073.05.318.218h.027l.309.2.073.05.331.213.073.045.309.191.059.036.354.209.086.05.368.2h.027l.359.191.086.045.381.191.077.036.354.163.068.032.4.172.1.041.413.168h0C847.307,418.765,845.991,425.346,845.991,425.346Z" transform="translate(-476.795 -236.971)"/>
    <path id="Path_500" data-name="Path 500" class="cls-17" d="M807.462,668.16l-2.982,8.32s8.17,6.263,13.48,4.965a14.838,14.838,0,0,1,2.437-.395c1.1-.082,2.991-.885,1.815-1.9a100.417,100.417,0,0,1-8.792-9.418Z" transform="translate(-477.925 -403.462)"/>
    <path id="Path_501" data-name="Path 501" class="cls-17" d="M918.642,664.166l-1.412,8.006s7.221-.313,19.467,3.454c0,0,4.711-2.042.785-4.539a8.411,8.411,0,0,1-7.375-4.539c-2.837-4.852-4.539-4.239-4.539-4.239Z" transform="translate(-539.501 -400.254)"/>
    <path id="Path_502" data-name="Path 502" class="cls-18" d="M821.163,520.475l1.362,24.364a10.076,10.076,0,0,1-2.4,7.126,14.771,14.771,0,0,1-2.592,2.419c-3.3,2.356-10.362,27.155-10.362,27.155s8.006.454,10.2,2.042c0,0,.454-6.277,1.725-6.908s10.516-18.995,10.516-18.995l9.264-23.86s7.375,12.708,13.657,14.914v5.338s3.454,15.7,4.711,17.424,0,8.624,0,8.624,3.631,4.539,11.928-.313a10.479,10.479,0,0,1-2.51-6.595c.159-3.613-3.631-23.388-3.631-23.388s.454-7.534-3.3-12.255-9.981-22.753-9.981-22.753l-4.321-9.3Z" transform="translate(-479.394 -314.64)"/>
    <g id="Group_47" data-name="Group 47" class="cls-13" transform="translate(327.889 190.884)">
      <path id="Path_503" data-name="Path 503" d="M808.832,581.54s7.062-24.8,10.362-27.155a14.978,14.978,0,0,0,2.723-2.578,9.985,9.985,0,0,0,2.269-6.962L822.8,520.476l23.147-14.27-.313-.676L821.39,520.481l1.384,24.368a9.986,9.986,0,0,1-2.269,6.962,14.974,14.974,0,0,1-2.723,2.578c-3.291,2.351-10.362,27.151-10.362,27.151s8.006.454,10.2,2.042a4.8,4.8,0,0,1,.059-.64A44.038,44.038,0,0,0,808.832,581.54Z" transform="translate(-807.42 -505.53)"/>
      <path id="Path_504" data-name="Path 504" d="M898.1,614.169s1.257-6.908,0-8.624-4.711-17.424-4.711-17.424v-5.347c-6.277-2.2-13.657-14.914-13.657-14.914l-.545,1.425c2.129,3.377,7.807,11.755,12.795,13.5v5.338s3.454,15.7,4.711,17.424,0,8.624,0,8.624a6.552,6.552,0,0,0,5.619,1.906A6.152,6.152,0,0,1,898.1,614.169Z" transform="translate(-846.616 -539.57)"/>
    </g>
    <path id="Path_505" data-name="Path 505" class="cls-19" d="M951.337,460.968l-3.082.2-1.625.109v-3.926l2.133-.386,1.321-.241s4.085-12.087,8.006-9.89S951.337,460.968,951.337,460.968Z" transform="translate(-555.557 -282.447)"/>
    <path id="Path_506" data-name="Path 506" class="cls-19" d="M844.826,407s-2.042,7.847-2.669,12.708,14.6.944,14.6.944-5.81-7.062-2.51-10.829Z" transform="translate(-498.491 -260.836)"/>
    <path id="Path_507" data-name="Path 507" class="cls-9" d="M860.581,446.855l.313,2.982-4.865-.313-4.865-4.239L846.3,431.623l-3.132-4.87-2.356-2.982.944-3.631s.431.377,1.157.93c2.392,1.815,8,5.633,12.1,4.58a4.884,4.884,0,0,0,.558-.177l6.123,10.516Z" transform="translate(-497.766 -268.012)"/>
    <path id="Path_508" data-name="Path 508" class="cls-5" d="M829.018,418.1s-2.51.454-4.239,4.239c-1.325,2.9-5.81,5.9-7.811,7.112a3.35,3.35,0,0,0-1.52,2.115c-.4,1.788-.558,5.124,1.638,9.922a62.813,62.813,0,0,0,5.964,10.829s.626,7.534-.313,9.731,0,14.283,0,14.283,16.48,3.141,21.977,0,4.711-15.227,4.711-15.227,5.179,10.988,7.062,11.3l-1.1-6.123s-6.123-6.595-6.436-15.069c0,0-1.884-7.693-.313-9.731,0,0,26.529,2.2,28.1.313,0,0-17.424-.785-20.093-5.024,0,0-7.693-6.123-8.006-10.2a4.511,4.511,0,0,0-2.356-3.7,6.146,6.146,0,0,0-3.518-.785l-3.545.245s6.123,10.829,5.81,12.255.313,12.872.313,12.872-7.085-15.227-10.2-16.952-6.754-8.823-6.754-8.823l.626-3.586" transform="translate(-483.782 -266.898)"/>
    <path id="Path_509" data-name="Path 509" class="cls-5" d="M860.581,446.855l.313,2.982-4.865-.313-4.865-4.239L846.3,431.623l-3.132-4.87-2.356-2.982.944-3.631s.431.377,1.157.93l-.218,1.239s3.631,7.09,6.749,8.819,10.2,16.952,10.2,16.952-.626-11.46-.313-12.872c.213-.958-2.537-6.25-4.325-9.559a4.883,4.883,0,0,0,.558-.177l6.123,10.516Z" transform="translate(-497.766 -268.012)"/>
    <path id="Path_510" data-name="Path 510" class="cls-5" d="M948.255,473.683l-1.625.109v-3.926l2.133-.386C948.019,470.465,948.046,472.208,948.255,473.683Z" transform="translate(-555.557 -294.958)"/>
    <path id="Path_511" data-name="Path 511" class="cls-18" d="M829.018,417.08s-2.51.454-4.239,4.239c-1.325,2.9-5.81,5.9-7.811,7.112a3.35,3.35,0,0,0-1.52,2.115c-.4,1.788-.558,5.124,1.638,9.922A62.813,62.813,0,0,0,823.05,451.3s.626,7.534-.313,9.731,0,14.283,0,14.283,16.48,3.141,21.977,0,4.711-15.227,4.711-15.227,5.174,10.97,7.062,11.306l-1.1-6.123s-6.123-6.595-6.436-15.069c0,0-1.884-7.693-.313-9.731,0,0,6.123,6.595,13.031,6.436a129.973,129.973,0,0,1,15.069.785s-1.57-5.024,0-6.908c0,0-17.424-.785-20.093-5.024,0,0-7.693-6.123-8.006-10.2a4.511,4.511,0,0,0-2.356-3.7,6.145,6.145,0,0,0-3.518-.785l-3.545.245s6.123,10.829,5.81,12.255.313,12.872.313,12.872-7.085-15.236-10.2-16.961-6.754-8.805-6.754-8.805l.626-3.586" transform="translate(-483.782 -266.341)"/>
    <path id="Path_512" data-name="Path 512" class="cls-5" d="M832.73,453.39s3.767,12.708,5.964,14.283,15.541,9.577,19.467,7.693c0,0,.944,4.711-.454,5.81,0,0-14.637-.572-14.755-.626,0,0-9.577-1.257-11.147-5.964s-3.454-12.708-3.454-12.708Z" transform="translate(-490.961 -286.171)"/>
    <ellipse id="Ellipse_51" data-name="Ellipse 51" class="cls-20" cx="0.549" cy="0.785" rx="0.549" ry="0.785" transform="translate(361.326 180.014)"/>
    <ellipse id="Ellipse_52" data-name="Ellipse 52" class="cls-20" cx="0.549" cy="0.785" rx="0.549" ry="0.785" transform="translate(362.892 185.506)"/>
    <g id="Group_48" data-name="Group 48" class="cls-13" transform="translate(331.423 150.726)">
      <path id="Path_513" data-name="Path 513" d="M823.84,475.123s-.944-12.087,0-14.283.313-9.731.313-9.731a62.814,62.814,0,0,1-5.964-10.829c-2.2-4.8-2.042-8.133-1.638-9.922a3.35,3.35,0,0,1,1.52-2.115c2-1.225,6.481-4.216,7.811-7.112a8.2,8.2,0,0,1,3.077-3.735l.059-.345s-2.51.454-4.239,4.239c-1.325,2.9-5.81,5.9-7.811,7.112a3.35,3.35,0,0,0-1.52,2.115c-.4,1.788-.558,5.124,1.638,9.922a62.812,62.812,0,0,0,5.964,10.829s.626,7.534-.313,9.731,0,14.283,0,14.283,11.773,2.242,18.736,1.039C834.442,477.161,823.84,475.123,823.84,475.123Z" transform="translate(-815.205 -417.05)"/>
      <path id="Path_514" data-name="Path 514" d="M873.919,438.568a95.608,95.608,0,0,0,.177,10.139c.758,1.548,1.235,2.578,1.235,2.578s-.626-11.46-.313-12.872c.3-1.362-5.215-11.192-5.764-12.164l-1.144.077S874.237,437.157,873.919,438.568Z" transform="translate(-844.098 -422.074)"/>
      <path id="Path_515" data-name="Path 515" d="M903.845,474.7c-6.908.159-13.031-6.436-13.031-6.436a2.514,2.514,0,0,0-.395.849c1.815,1.688,6.808,5.869,12.327,5.742a129.973,129.973,0,0,1,15.069.785s-.032-.1-.082-.281A124.97,124.97,0,0,0,903.845,474.7Z" transform="translate(-856.282 -445.017)"/>
      <path id="Path_516" data-name="Path 516" d="M893,511.49s.064.98.027,2.451c1.634,3.241,4.607,8.782,5.937,9l-.231-1.289C896.449,518.788,893,511.49,893,511.49Z" transform="translate(-857.691 -468.626)"/>
    </g>
    <path id="Path_517" data-name="Path 517" class="cls-19" d="M895.518,491.71l-3.336.7-2.632.554,1.411-3.926.985-.245,1.53-.381s2.2-10.988,6.595-10.2S895.518,491.71,895.518,491.71Z" transform="translate(-524.384 -299.704)"/>
    <path id="Path_518" data-name="Path 518" class="cls-5" d="M892.192,505.227l-2.632.554,1.412-3.926.985-.245A15.679,15.679,0,0,1,892.192,505.227Z" transform="translate(-524.39 -312.505)"/>
    <path id="Path_519" data-name="Path 519" class="cls-18" d="M832.73,452.7s3.767,12.708,5.964,14.283,15.541,9.577,19.467,7.693c0,0,.944,4.711-.454,5.81,0,0-14.637-.572-14.755-.626,0,0-9.577-1.257-11.147-5.964s-3.454-12.708-3.454-12.708Z" transform="translate(-490.961 -285.794)"/>
    <path id="Path_520" data-name="Path 520" class="cls-5" d="M847.5,407.74s-.318,1.23-.744,3.018a8.474,8.474,0,0,0,9.354,4.312,4.878,4.878,0,0,1,.808-4.5Z" transform="translate(-501.015 -261.24)"/>
    <circle id="Ellipse_53" data-name="Ellipse 53" class="cls-19" cx="8.478" cy="8.478" r="8.478" transform="translate(344.605 136.765)"/>
    <path id="Path_521" data-name="Path 521" class="cls-5" d="M856.186,382.451a4.539,4.539,0,0,0,1.888.118,3.109,3.109,0,0,0,2.3-2.964,4.539,4.539,0,0,0-1.747-3.5c-.717-.6-1.575-1.021-2.233-1.688a17.331,17.331,0,0,1-1.816-2.791,8.283,8.283,0,0,0-4.253-3.309,3.857,3.857,0,0,0-3.89.454c-.513.486-.812,1.18-1.384,1.593-.831.59-1.956.418-2.968.536a5.66,5.66,0,0,0-4.266,3.177,7.992,7.992,0,0,0-.418,5.446c.2.772.486,1.516.694,2.269.454,1.6.545,3.272,1.053,4.847a5.221,5.221,0,0,0,3.145,3.59,9.944,9.944,0,0,1,1.012-5.124,1.471,1.471,0,0,1,.717-.8,1.734,1.734,0,0,1,.862,0,8.624,8.624,0,0,0,5.742-1.162c.6-.363,1.543-1.616,2.183-1.738C853.631,381.267,855.324,382.261,856.186,382.451Z" transform="translate(-495.741 -239.541)"/>
    <path id="Path_522" data-name="Path 522" class="cls-21" d="M856.186,381.762a4.538,4.538,0,0,0,1.888.118,3.109,3.109,0,0,0,2.3-2.964,4.539,4.539,0,0,0-1.747-3.5c-.717-.6-1.575-1.021-2.233-1.688a17.332,17.332,0,0,1-1.816-2.791,8.283,8.283,0,0,0-4.253-3.309,3.857,3.857,0,0,0-3.89.454c-.513.486-.812,1.18-1.384,1.593-.831.59-1.956.418-2.968.536a5.66,5.66,0,0,0-4.266,3.177,7.993,7.993,0,0,0-.418,5.446c.2.772.486,1.516.694,2.269.454,1.6.545,3.272,1.053,4.847a5.221,5.221,0,0,0,3.145,3.59,9.944,9.944,0,0,1,1.021-5.12,1.47,1.47,0,0,1,.717-.8,1.734,1.734,0,0,1,.862,0,8.624,8.624,0,0,0,5.741-1.162c.6-.363,1.543-1.616,2.183-1.738C853.631,380.577,855.324,381.571,856.186,381.762Z" transform="translate(-495.741 -239.165)"/>
    <path id="Path_523" data-name="Path 523" class="cls-22" d="M974.149,337.49l-6.917,77.476-31.09,8.624-31-8.624L898.23,337.49Z" transform="translate(-529.125 -222.874)"/>
    <path id="Path_524" data-name="Path 524" class="cls-23" d="M981.86,424.623l25.122-6.962,5.9-66.211H981.86Z" transform="translate(-574.797 -230.498)"/>
    <path id="Path_525" data-name="Path 525" class="cls-24" d="M939.745,381.894h13.444v-9.5H929.36l.227,2.551,2.337,26.188h21.268v-9.5H940.616Zm2.16,23.987h-9.531L933.7,420.8l19.444,5.419h.045v-9.917h-.041l-10.584-2.859Z" transform="translate(-546.125 -241.934)"/>
    <path id="Path_526" data-name="Path 526" d="M913.8,291.09h4.829v4.77h4.416v-4.77h4.829v14.451h-4.829V300.7h-4.416v4.838H913.8Zm20.424,4.793h-4.253V291.09h13.335v4.793h-4.253v9.658h-4.825v-9.658h0Zm11.2-4.793h5.038l3.1,5.079,3.1-5.079H961.7v14.451h-4.811v-7.162l-3.322,5.138h-.082l-3.327-5.138v7.162h-4.729Zm18.672,0h4.829v9.672h6.808v4.775H964.112V291.09Z" transform="translate(-537.628 -197.534)"/>
    <path id="Path_527" data-name="Path 527" class="cls-25" d="M981.79,401.124h11.7l-1.1,12.327-10.6,2.859v9.908l19.485-5.4.141-1.607,2.233-25.022.231-2.551H981.79v9.5Zm0-19.258v.023h22.957l.191-2.138.454-4.82.227-2.551H981.79v9.481Z" transform="translate(-574.759 -241.929)"/>
    <path id="Path_528" data-name="Path 528" class="cls-26" d="M368.7,418.932c-.885-2.592-2.16-5.9-3.177-6.654a.95.95,0,0,0-.2-.123H365.2v-3.2l-2.387.381a22.814,22.814,0,0,1-.867-3.545,1.648,1.648,0,0,0,1.793.359c-.041-.064-.073-.132-.109-.2l.109-.045a4.434,4.434,0,0,1-.576-2.174,7.913,7.913,0,0,1,.331-2.051c.427-1.475,1.148-2.855,1.552-4.335a10.539,10.539,0,0,0,.363-2.932,10.685,10.685,0,0,0-1.117-4.834,2.823,2.823,0,0,0-.844-1.1,10.879,10.879,0,0,0-1.035-.5,5.587,5.587,0,0,1-1.5-1.5,13.5,13.5,0,0,0-6.522-4.353,3.817,3.817,0,0,0-2.083-.163c-1.6.454-2.188,2.419-3.486,3.458-1.148.908-2.723,1.012-4.157,1.321a7.071,7.071,0,0,0-3.872,2.029,4.2,4.2,0,0,0-1.039,2.8,2.819,2.819,0,0,0,1.148,2.505,3.6,3.6,0,0,0,3.041.431,10.344,10.344,0,0,0,7.829,13l.281.5h0a21.42,21.42,0,0,1,1.938,5.07c-2.2,1.248-4.6,2.415-6.046,2.524a10.194,10.194,0,0,1-.313,1.675,9.246,9.246,0,0,1-1.9,3.744c-1.97,2.215-10.834,18.963-10.834,18.963s-.281.667-.735,1.815c-5.505.676-14.488,1.652-17,1.148l-9.849-9.359s-3.177,2.428-2.9,5.378l-1.775-1.688s-9.359,7.139,5.419,11.8l22.485,2.61c-2.142,6.463-4.139,13.984-3.522,18.078h.186a8.507,8.507,0,0,0,1.284-.1l-.041.726-2.165,38.774s-.495,7.139,6.154,10.344c0,0,8.129,23.887,4.925,26.6,0,0,.381.2,1.021.481l-6.686,5.9s-4.924,1.23-7.634.985a1.956,1.956,0,0,0-2.16,1.457.318.318,0,0,1-.027.154v.477a.286.286,0,0,0,.032.159v.059a1.558,1.558,0,0,0,.054.168v.054c.023.055.05.109.077.163v.036c.032.055.064.109.1.163l.032.045q.059.086.132.172l.036.045c.05.059.1.113.163.172h.027l.182.154.041.032.222.159.054.036.259.15h.041l.277.136h.041l.322.132.068.027.359.118h.059l.386.1h.032l.454.086h.086l.454.068h.086l.522.05c1.012.077,2.378.1,3.958.1h0v.254a.286.286,0,0,0,.032.159v.059a1.554,1.554,0,0,0,.054.168v.054c.023.055.05.109.077.163v.036c.032.055.064.109.1.163l.032.045q.059.086.132.172l.036.045c.05.059.1.113.163.172h.023l.182.154.041.032.222.159.054.036.254.15h.041l.277.136h.041l.322.132.068.027.359.118H333l.386.1h.032l.454.086h.086l.454.068h.086l.522.05c6.4.495,26.842-.985,26.842-.985v-.059h0v-.073h0c.2-.953,1.185-6.495-2.3-10.593q.157-.163.3-.34s-2.723-4.679-1.23-6.154-7.212-26.86-7.212-26.86-4.679-7.389-1.97-15.763-.245-17.483-.245-17.483,6.468-1.915,6.586-9.872v-.74a2.613,2.613,0,0,0,.408.027,1.913,1.913,0,0,0,.272,0s-1.23-4.434.245-7.634,4.679-.245,7.634-13.3c2.138-9.445,4.017-20.306,4.9-25.594A13.475,13.475,0,0,0,368.7,418.932Zm-56.2,27.686-2.247-2.133c.744.309,1.57.608,2.492.908l8.465.994c-3.776.34-7.3.531-8.71.245Z" transform="translate(-202.257 -247.119)"/>
    <path id="Path_529" data-name="Path 529" class="cls-10" d="M334.7,512.742s-17.42,2.419-21.051,1.693l-9.677-9.2s-9.2,7.017,5.324,11.615l27.1,3.145Z" transform="translate(-203.017 -314.487)"/>
    <path id="Path_530" data-name="Path 530" class="cls-27" d="M334.7,512.742s-17.42,2.419-21.051,1.693l-9.677-9.2s-9.2,7.017,5.324,11.615l27.1,3.145Z" transform="translate(-203.017 -314.487)"/>
    <path id="Path_531" data-name="Path 531" class="cls-28" d="M244.612,409.447l-37.644-10.439L198.58,304.92h92.177l-8.4,94.074Z" transform="translate(-147.026 -205.087)"/>
    <path id="Path_532" data-name="Path 532" class="cls-29" d="M330.636,402.27l7.176-80.39H300.14v88.827Z" transform="translate(-202.491 -214.349)"/>
    <path id="Path_533" data-name="Path 533" class="cls-24" d="M238.471,370.626l1.035,11.537h25.825V370.626Zm-2.079-23.356,1.048,11.537h27.886V347.27H236.37ZM265.327,400.6h-.05l-12.854-3.472-.822-9.2H240l1.616,18.119,23.638,6.577h.054Z" transform="translate(-167.664 -228.215)"/>
    <path id="Path_534" data-name="Path 534" d="M246.38,248.56h13.975v5.846h-8.133v5.846h8.133V266.1H246.38Zm16.793,0h13.975v5.083H269v1.017h8.133v11.692H263.151v-5.338h8.133V260h-8.133V248.56Zm16.793,0h13.975v5.083h-8.174v1.017H293.9v11.692H279.921v-5.338h8.133V260h-8.133V248.56Z" transform="translate(-173.131 -174.307)"/>
    <path id="Path_535" data-name="Path 535" class="cls-25" d="M326.842,370.626l2.083-23.356H300v11.537h16.262l-1.048,11.8H300v11.537h14.211l-1.362,14.978L300,400.6v12l23.656-6.558.172-1.952,2.723-30.382.281-3.1Z" transform="translate(-202.415 -228.215)"/>
    <path id="Path_536" data-name="Path 536" class="cls-30" d="M367.185,738.19l-8.469,7.5s-4.838,1.212-7.5.967-3.872,4.112,2.419,4.6,26.37-.967,26.37-.967,1.934-7.743-3.872-12.1Z" transform="translate(-229.205 -441.708)"/>
    <path id="Path_537" data-name="Path 537" class="cls-27" d="M367.185,738.19l-8.469,7.5s-4.838,1.212-7.5.967-3.872,4.112,2.419,4.6,26.37-.967,26.37-.967,1.934-7.743-3.872-12.1Z" transform="translate(-229.205 -441.708)"/>
    <path id="Path_538" data-name="Path 538" class="cls-31" d="M380.3,757.47a13.344,13.344,0,0,1-.3,2.623s-20.079,1.452-26.37.967c-3.027-.232-4.312-1.362-4.539-2.442-.277,1.244.822,2.882,4.539,3.177,6.291.486,26.37-.967,26.37-.967A13.978,13.978,0,0,0,380.3,757.47Z" transform="translate(-229.202 -452.237)"/>
    <path id="Path_539" data-name="Path 539" class="cls-10" d="M410.84,427.808s5.324,7.5,3.386,12.581,10.162-5.324,10.162-5.324-3.872-6.8-1.933-14.065Z" transform="translate(-262.947 -268.481)"/>
    <path id="Path_540" data-name="Path 540" class="cls-30" d="M385.836,744.59l-8.46,7.5s-4.838,1.212-7.5.967-3.872,4.112,2.419,4.6,26.37-.967,26.37-.967,1.934-7.743-3.872-12.1Z" transform="translate(-239.396 -445.203)"/>
    <path id="Path_541" data-name="Path 541" class="cls-11" d="M383.3,634.911a6.421,6.421,0,0,1-4.9,2.247c-4.23.2-8.887-2.247-8.887-2.247,3.145-2.66-4.838-26.129-4.838-26.129-6.531-3.145-6.05-10.162-6.05-10.162l2.115-38.08.536-9.568,6.776-4.112,5.338,4.085,5.065,3.885a20.363,20.363,0,0,1,.635,3.776c.59,8.891-6.44,10.984-6.44,10.984s2.9,8.95.241,17.179,1.933,15.486,1.933,15.486,8.71,25.163,7.262,26.615S383.3,634.911,383.3,634.911Z" transform="translate(-234.424 -337.217)"/>
    <path id="Path_542" data-name="Path 542" class="cls-27" d="M383.3,634.911a6.421,6.421,0,0,1-4.9,2.247c-4.23.2-8.887-2.247-8.887-2.247,3.145-2.66-4.838-26.129-4.838-26.129-6.531-3.145-6.05-10.162-6.05-10.162l2.115-38.08.536-9.568,6.776-4.112,5.338,4.085,5.065,3.885a20.363,20.363,0,0,1,.635,3.776c.59,8.891-6.44,10.984-6.44,10.984s2.9,8.95.241,17.179,1.933,15.486,1.933,15.486,8.71,25.163,7.262,26.615S383.3,634.911,383.3,634.911Z" transform="translate(-234.424 -337.217)"/>
    <path id="Path_543" data-name="Path 543" class="cls-11" d="M397.279,641.29c-4.112,5.079-13.789,0-13.789,0a1.543,1.543,0,0,0,.422-.658c1.775-4.825-5.987-27.89-5.987-27.89-6.531-3.145-7.262-10.643-7.262-10.643l-1.711-38.77-.222-5.02,10.18-3.885,3.127-1.194,10.416,7.984a18.869,18.869,0,0,1,.654,5.074c-.132,7.811-6.472,9.7-6.472,9.7s2.9,8.95.241,17.179,1.947,15.463,1.947,15.463,8.71,25.163,7.262,26.615S397.279,641.29,397.279,641.29Z" transform="translate(-239.95 -340.696)"/>
    <path id="Path_544" data-name="Path 544" class="cls-5" d="M390.137,562.815c-2.092-.3-6.327-2.819-8.5-4.185-.831-.522-1.362-.871-1.362-.871s-2.179-6.05-7.984-1.452a21.735,21.735,0,0,1-6.309,3.567,14.759,14.759,0,0,1-2.691.676l.536-9.568,6.776-4.112,5.338,4.085,3.127-1.194,10.416,7.979A18.869,18.869,0,0,1,390.137,562.815Z" transform="translate(-236.979 -337.223)"/>
    <path id="Path_545" data-name="Path 545" class="cls-32" d="M401.413,460.2c-.862,5.192-2.723,15.885-4.811,25.14-2.9,12.822-6.05,9.917-7.5,13.062s-.241,7.5-.241,7.5c-2.419.241-10.4-5.079-10.4-5.079s-2.179-6.05-7.984-1.452-10.4,4.353-10.4,4.353c-1.212-7.984,7.743-29.275,7.743-29.275s8.71-16.453,10.643-18.609a9.077,9.077,0,0,0,1.87-3.676,10.007,10.007,0,0,0,.309-1.643c3.145-.241,10.893-5.564,10.893-5.564l6.05-.967v3.145a.906.906,0,0,1,.2.123c.994.758,2.269,3.99,3.118,6.536a13.24,13.24,0,0,1,.513,6.409Z" transform="translate(-235.161 -281.037)"/>
    <path id="Path_546" data-name="Path 546" class="cls-10" d="M346.533,512.01l-3.127-.363-23.969-2.782c-14.524-4.6-5.324-11.615-5.324-11.615l9.677,9.2c2.791.558,13.743-.744,18.65-1.362,1.471-.191,2.4-.318,2.4-.318Z" transform="translate(-208.552 -310.124)"/>
    <path id="Path_547" data-name="Path 547" class="cls-5" d="M407.769,456.919s-6.291-5.079-15.745,11.37-11.615,13.789-11.615,13.789,1.934,7.262.967,8.71c0,0,6.531-.486,8.95,0s17.42-18.386,17.42-18.386S415.512,461.758,407.769,456.919Z" transform="translate(-246.329 -287.694)"/>
    <path id="Path_548" data-name="Path 548" class="cls-5" d="M407.261,454.789s-6.291-5.079-15.727,11.37-11.615,13.789-11.615,13.789,7.5,8.224,9.917,8.71,17.42-18.386,17.42-18.386S415,459.628,407.261,454.789Z" transform="translate(-246.061 -286.53)"/>
    <path id="Path_549" data-name="Path 549" class="cls-5" d="M380.937,520.7a29.081,29.081,0,0,0-.967-6.577c1.471-.191,2.4-.318,2.4-.318l1.693,7.262Z" transform="translate(-246.088 -319.168)"/>
    <path id="Path_550" data-name="Path 550" class="cls-32" d="M407.769,455.85s-6.291-5.079-15.745,11.374-11.615,13.789-11.615,13.789,1.934,7.262.967,8.71c0,0,6.531-.486,8.95,0s17.42-18.386,17.42-18.386S415.512,460.688,407.769,455.85Z" transform="translate(-246.329 -287.11)"/>
    <path id="Path_551" data-name="Path 551" class="cls-5" d="M423,422.09l-11.633,6.767a24.815,24.815,0,0,1,1.362,2.215,10.207,10.207,0,0,0,2.033.2c3.1,0,4.539-3.254,6.413-5.446C421.042,424.087,422.467,424.042,423,422.09Z" transform="translate(-263.237 -269.077)"/>
    <circle id="Ellipse_54" data-name="Ellipse 54" class="cls-10" cx="10.162" cy="10.162" r="10.162" transform="translate(141.116 141.403)"/>
    <path id="Path_552" data-name="Path 552" class="cls-5" d="M388.758,392.647a6.944,6.944,0,0,1,3.8-2c1.412-.3,2.959-.395,4.085-1.3,1.275-1.021,1.847-2.964,3.422-3.4a3.753,3.753,0,0,1,2.047.163,13.258,13.258,0,0,1,6.409,4.275,5.488,5.488,0,0,0,1.48,1.475,10.71,10.71,0,0,1,1.017.495,2.774,2.774,0,0,1,.826,1.085,10.521,10.521,0,0,1,.735,7.385c-.395,1.457-1.1,2.809-1.525,4.262a5.62,5.62,0,0,0,.241,4.393,1.792,1.792,0,0,1-2.151-.794,8.514,8.514,0,0,1-.853-2.351,8.964,8.964,0,0,0-2.623-4.085c-.763-.672-2.124-1.126-2.655-.259-.2.336-.191.767-.368,1.117a1.5,1.5,0,0,1-2.011.454,3.082,3.082,0,0,1-1.257-1.865c-.994-3.372-2.7-5.492-6.3-4.053-1.362.536-2.927.908-4.221,0C387.2,396.432,387.532,394.022,388.758,392.647Z" transform="translate(-250.324 -249.301)"/>
    <path id="Path_553" data-name="Path 553" class="cls-33" d="M388.758,392.107a6.944,6.944,0,0,1,3.8-2c1.412-.3,2.959-.395,4.085-1.3,1.275-1.021,1.847-2.964,3.422-3.4a3.753,3.753,0,0,1,2.047.163,13.258,13.258,0,0,1,6.409,4.275,5.487,5.487,0,0,0,1.48,1.475,10.715,10.715,0,0,1,1.017.495,2.773,2.773,0,0,1,.826,1.085,10.521,10.521,0,0,1,.735,7.385c-.395,1.457-1.1,2.809-1.525,4.262a5.62,5.62,0,0,0,.241,4.393,1.792,1.792,0,0,1-2.151-.794,8.514,8.514,0,0,1-.853-2.351,8.963,8.963,0,0,0-2.623-4.085c-.763-.672-2.124-1.126-2.655-.259-.2.336-.191.767-.368,1.117a1.5,1.5,0,0,1-2.011.454,3.082,3.082,0,0,1-1.257-1.865c-.994-3.372-2.7-5.492-6.3-4.053-1.362.536-2.927.908-4.221,0C387.2,395.9,387.532,393.487,388.758,392.107Z" transform="translate(-250.324 -249.006)"/>
    <path id="Path_554" data-name="Path 554" class="cls-27" d="M422.272,447.223h-4.915s-9.677,4.838-9.917,4.6a8.348,8.348,0,0,0-2.61.313,10.007,10.007,0,0,0,.309-1.643c3.145-.241,10.893-5.564,10.893-5.564l6.05-.967v3.145A.909.909,0,0,1,422.272,447.223Z" transform="translate(-259.665 -281.021)"/>
    <path id="Path_555" data-name="Path 555" class="cls-31" d="M398.954,763.86a13.343,13.343,0,0,1-.3,2.623s-20.079,1.452-26.37.967c-3.027-.231-4.312-1.362-4.539-2.442-.277,1.244.822,2.882,4.539,3.177,6.291.486,26.37-.967,26.37-.967a13.98,13.98,0,0,0,.3-3.359Z" transform="translate(-239.388 -455.727)"/>
    <g id="Group_49" data-name="Group 49" class="cls-34" transform="translate(124.968 166.076)">
      <path id="Path_556" data-name="Path 556" d="M368.377,563.413a20.706,20.706,0,0,1-8.047,4.085,3.39,3.39,0,0,0,.064.531s4.6.241,10.4-4.353a7.8,7.8,0,0,1,3.109-1.625C372.639,561.429,370.833,561.47,368.377,563.413Z" transform="translate(-360.33 -511.395)"/>
      <path id="Path_557" data-name="Path 557" d="M432.451,457.528c-.867-2.546-2.124-5.773-3.118-6.536a.908.908,0,0,0-.2-.123s-2,.068-1.934.123c.994.758,1.965,3.749,2.832,6.291a13.239,13.239,0,0,1,.527,6.427c-.862,5.192-2.723,15.886-4.811,25.14-2.9,12.822-6.05,9.917-7.5,13.062-1.189,2.578-.595,5.964-.336,7.1a6.087,6.087,0,0,0,2.514.64s-1.212-4.353.241-7.5,4.6-.241,7.5-13.062c2.1-9.277,3.949-19.97,4.811-25.14A13.239,13.239,0,0,0,432.451,457.528Z" transform="translate(-391.571 -450.87)"/>
    </g>
    <path id="Path_558" data-name="Path 558" class="cls-3" d="M492.032,555a5.3,5.3,0,0,0,1.738-2.623,2.328,2.328,0,0,0-1.216-2.673c-1.117-.427-2.31.345-3.213,1.13s-1.943,1.675-3.127,1.507a4.757,4.757,0,0,0,1.471-4.452,1.861,1.861,0,0,0-.409-.908c-.622-.663-1.743-.377-2.487.145-2.36,1.661-3.018,4.865-3.032,7.752a14.861,14.861,0,0,1-.045-3.177,3.28,3.28,0,0,0-1.2-2.823,3.631,3.631,0,0,0-1.815-.431,3.779,3.779,0,0,0-2.968.844,2.919,2.919,0,0,0,.118,3.631,11.812,11.812,0,0,0,3.073,2.46,6.808,6.808,0,0,1,2.2,2.092,2.076,2.076,0,0,1,.163.372h6.649A18.53,18.53,0,0,0,492.032,555Z" transform="translate(-298.066 -337.07)"/>
    <path id="Path_559" data-name="Path 559" class="cls-3" d="M511.722,739.154a7.228,7.228,0,0,0,2.36-3.558,3.17,3.17,0,0,0-1.648-3.631c-1.511-.581-3.132.454-4.357,1.53s-2.632,2.269-4.235,2.042a6.45,6.45,0,0,0,1.992-6.036,2.523,2.523,0,0,0-.554-1.225c-.84-.908-2.365-.513-3.368.2-3.177,2.269-4.085,6.595-4.108,10.507a19.988,19.988,0,0,1-.059-4.33,4.45,4.45,0,0,0-1.625-3.831,4.9,4.9,0,0,0-2.478-.581c-1.439-.054-3.041.091-4.021,1.144-1.221,1.307-.908,3.5.159,4.938a15.708,15.708,0,0,0,4.162,3.336,9.231,9.231,0,0,1,2.973,2.837,2.811,2.811,0,0,1,.222.508h9.018a25.124,25.124,0,0,0,5.565-3.844Z" transform="translate(-305.543 -436.005)"/>
  </g>
</svg>
