<svg width="40" height="50" xmlns="http://www.w3.org/2000/svg">
 <!-- Created with Method Draw - http://github.com/duopixel/Method-Draw/ -->

 <g>
  <title>Layer 1</title>
  <defs>
   <style>.cls-1, .cls-3 {
        fill: #2e2079;
      }

      .cls-1, .cls-11, .cls-5, .cls-6 {
        opacity: 0.1;
      }

      .cls-2 {
        fill: #d48a9b;
      }

      .cls-4 {
        fill: #dda2a6;
        opacity: 0.2;
      }

      .cls-7 {
        fill: #e1dee5;
      }

      .cls-8 {
        fill: #a36468;
      }

      .cls-9 {
        fill: #d9d6df;
      }

      .cls-10 {
        fill: #b8797d;
      }

      .cls-11, .cls-19 {
        fill: #fff;
      }

      .cls-12 {
        fill: url(#linear-gradient);
      }

      .cls-13 {
        fill: #efb7b9;
      }

      .cls-14 {
        fill: #67647e;
      }

      .cls-15 {
        fill: #444053;
      }

      .cls-16 {
        fill: #f3f5f9;
      }

      .cls-17 {
        fill: #d1d9ec;
      }

      .cls-18 {
        fill: #dfe6f5;
      }

      .cls-20 {
        fill: none;
      }

      .cls-21 {
        fill: #948b78;
      }

      .cls-22 {
        fill: #746d83;
      }

      .cls-23 {
        fill: #4c4c56;
      }

      .cls-24 {
        fill: #d4dfec;
      }</style>
  </defs>
  <g stroke="null" id="svg_156">
   <g stroke="null" transform="matrix(2.3111797469545765,0,0,2.3111797469545765,-2133.651131091658,-2112.08514623742) " id="svg_118">
    <path stroke="null" d="m936.927641,915.189736a3.141,3.141 0 0 0 -0.4,0.786c-0.026,0.068 -0.049,0.147 -0.074,0.222a0.792,0.792 0 0 0 -0.138,-0.051a1.845,1.845 0 0 0 -0.625,-0.055a2.06,2.06 0 0 1 0.012,-0.27c0.025,-0.966 -0.084,-2.312 -0.964,-1.742c-0.846,0.55 -0.243,1.467 0.3,2.053l0.14,0.145c-0.5,0.367 -0.59,1.234 -0.675,2.134a5.066,5.066 0 0 1 -1.3,2.444c-0.049,0.059 -0.095,0.108 -0.137,0.156a1.722,1.722 0 0 0 -1.4,-0.379l-0.065,-0.247c-0.392,-1.483 -1.207,-4.051 -2.246,-4.614c0.044,-0.057 0.089,-0.116 0.137,-0.183c0.442,-0.6 0.937,-1.5 0.2,-1.73s-0.8,0.779 -0.759,1.533a1.643,1.643 0 0 0 0.021,0.269a1.06,1.06 0 0 0 -0.769,0.392l-0.112,-0.141c-0.6,-0.733 -1.689,-1.9 -2.019,-1.019c-0.308,0.821 0.654,1.888 1.33,2.506l0.042,0.038c-0.456,1.927 1.528,3.5 2.595,4.185l0.137,0.088a17.2,17.2 0 0 0 -2.379,5.217l4.121,0.77s2.731,-2.467 2.383,-4.784l0.028,0c2.73,-0.572 3.352,-3.619 2.926,-5.426l0.049,-0.022a3.118,3.118 0 0 0 1.263,-1c0.764,-1.112 -0.839,-2.365 -1.622,-1.275z" class="cls-5" id="svg_153"/>
    <path stroke="null" d="m928.72264,916.432746l-0.482,1.476s-0.266,-0.2 -0.6,-0.51c-0.676,-0.618 -1.638,-1.685 -1.33,-2.506c0.329,-0.882 1.423,0.282 2.018,1.019c0.236,0.294 0.394,0.521 0.394,0.521z" class="cls-3" id="svg_152"/>
    <path stroke="null" d="m929.743662,915.588744a6.967,6.967 0 0 1 -0.473,0.583a7.442,7.442 0 0 1 -0.086,-0.777c-0.04,-0.753 0.035,-1.758 0.759,-1.532s0.238,1.123 -0.2,1.726z" class="cls-3" id="svg_151"/>
    <path stroke="null" d="m935.954657,915.821772c-0.016,0.486 -0.061,0.874 -0.061,0.874a6.2,6.2 0 0 1 -0.6,-0.563c-0.545,-0.59 -1.148,-1.505 -0.3,-2.053c0.882,-0.569 0.986,0.776 0.961,1.742z" class="cls-3" id="svg_150"/>
    <path stroke="null" d="m938.80066,916.45777a3.118,3.118 0 0 1 -1.263,1a3.29,3.29 0 0 1 -0.424,0.161l-0.568,-0.834a6.1,6.1 0 0 1 0.235,-0.81a3.131,3.131 0 0 1 0.4,-0.786c0.782,-1.09 2.386,0.164 1.62,1.269z" class="cls-3" id="svg_149"/>
    <path stroke="null" d="m928.324662,915.911757c0.24,0.293 0.4,0.521 0.4,0.521l-0.482,1.476s-0.266,-0.2 -0.6,-0.51a2.943,2.943 0 0 1 0.542,-1.3c0.041,-0.067 0.092,-0.128 0.14,-0.187z" class="cls-5" id="svg_148"/>
    <path stroke="null" d="m929.743647,915.588736a6.908,6.908 0 0 1 -0.473,0.583a7.442,7.442 0 0 1 -0.086,-0.777a0.944,0.944 0 0 1 0.559,0.194z" class="cls-5" id="svg_147"/>
    <path stroke="null" d="m932.109663,921.447786l-1.2,0.55a7.156,7.156 0 0 1 -0.638,-0.378c-1.26,-0.81 -3.793,-2.851 -2.1,-5.256s3.114,1.908 3.679,4.018c0.171,0.634 0.259,1.066 0.259,1.066z" class="cls-3" id="svg_146"/>
    <path stroke="null" d="m935.292632,916.131782a0.975,0.975 0 0 1 0.662,-0.312c-0.016,0.486 -0.061,0.874 -0.061,0.874a6.152,6.152 0 0 1 -0.6,-0.563l-0.001,0.001z" class="cls-5" id="svg_145"/>
    <path stroke="null" d="m937.53766,917.455775a3.307,3.307 0 0 1 -0.424,0.161l-0.568,-0.834a6.109,6.109 0 0 1 0.235,-0.81a2.179,2.179 0 0 1 0.757,1.483z" class="cls-5" id="svg_144"/>
    <path stroke="null" d="m934.561615,922.907781c-0.067,0.015 -0.133,0.027 -0.2,0.039c-4.018,0.638 -1.325,-1.63 -1.325,-1.63s0.175,-0.174 0.426,-0.46a4.987,4.987 0 0 0 1.3,-2.444c0.126,-1.362 0.273,-2.64 1.81,-2.266c1.504,0.37 1.791,5.965 -2.011,6.761z" class="cls-3" id="svg_143"/>
    <rect stroke="null" x="926.810636" y="933.372758" height="2.112" width="7.676" class="cls-24" id="svg_142"/>
    <rect stroke="null" x="925.591642" y="926.509766" height="7.369" width="10.029" class="cls-24" id="svg_141"/>
    <rect stroke="null" x="926.810636" y="933.372758" height="2.112" width="7.676" class="cls-5" id="svg_140"/>
    <rect stroke="null" x="925.591642" y="926.509766" height="7.369" width="10.029" class="cls-5" id="svg_139"/>
    <rect stroke="null" x="927.315641" y="933.372758" height="2.112" width="7.676" class="cls-24" id="svg_138"/>
    <path stroke="null" d="m931.846666,920.388764c0.175,0.631 0.259,1.063 0.259,1.063l-1.2,0.55a7.192,7.192 0 0 1 -0.638,-0.378a3.08,3.08 0 0 1 1.579,-1.235z" class="cls-5" id="svg_137"/>
    <path stroke="null" d="m934.561615,922.905756c-0.067,0.015 -0.133,0.027 -0.2,0.038c-4.018,0.638 -1.325,-1.63 -1.325,-1.63s0.175,-0.174 0.426,-0.46a2.825,2.825 0 0 1 1.099,2.052z" class="cls-5" id="svg_136"/>
    <path stroke="null" d="m928.030621,926.926738s2.25,-8.432 5.4,-5.829s-1.283,6.6 -1.283,6.6l-4.117,-0.771z" class="cls-3" id="svg_135"/>
    <ellipse stroke="null" ry="0.264" rx="0.252" cy="917.686761" cx="929.165648" class="cls-5" id="svg_134"/>
    <ellipse stroke="null" ry="0.264" rx="0.252" cy="918.918755" cx="929.144637" class="cls-5" id="svg_133"/>
    <ellipse stroke="null" ry="0.264" rx="0.252" cy="917.928765" cx="936.461638" class="cls-5" id="svg_132"/>
    <ellipse stroke="null" ry="0.264" rx="0.252" cy="924.243768" cx="930.573638" class="cls-5" id="svg_131"/>
    <ellipse stroke="null" ry="0.264" rx="0.252" cy="919.974755" cx="935.935637" class="cls-5" id="svg_130"/>
    <ellipse stroke="null" ry="0.264" rx="0.252" cy="922.703759" cx="933.328642" class="cls-5" id="svg_129"/>
    <ellipse stroke="null" ry="0.264" rx="0.252" cy="918.214761" cx="930.027648" class="cls-5" id="svg_128"/>
    <ellipse stroke="null" ry="0.264" rx="0.252" cy="918.720757" cx="935.767638" class="cls-5" id="svg_127"/>
    <ellipse stroke="null" ry="0.264" rx="0.252" cy="920.765755" cx="934.905638" class="cls-5" id="svg_126"/>
    <ellipse stroke="null" ry="0.264" rx="0.252" cy="924.045754" cx="932.255644" class="cls-5" id="svg_125"/>
    <ellipse stroke="null" ry="0.264" rx="0.252" cy="922.747765" cx="931.709639" class="cls-5" id="svg_124"/>
    <ellipse stroke="null" ry="0.264" rx="0.252" cy="919.820763" cx="930.405638" class="cls-5" id="svg_123"/>
    <rect stroke="null" x="927.315641" y="933.372758" height="0.772" width="7.676" class="cls-5" id="svg_122"/>
    <rect stroke="null" x="926.09564" y="926.509766" height="7.369" width="10.029" class="cls-24" id="svg_121"/>
    <ellipse stroke="null" ry="0.264" rx="0.252" cy="925.233758" cx="932.59265" class="cls-5" id="svg_120"/>
    <ellipse stroke="null" ry="0.264" rx="0.252" cy="925.56376" cx="931.078642" class="cls-5" id="svg_119"/>
   </g>
  </g>
 </g>
</svg>